<svg width="511" height="395" viewBox="0 0 511 395" fill="none" xmlns="http://www.w3.org/2000/svg">
<path d="M41.6083 237H52.6028L32.0356 284.43C26.9806 296.044 18.798 301.517 7.4876 300.848V291.088C11.2788 291.453 14.3117 290.936 16.5865 289.538C18.8612 288.078 20.6936 285.616 22.0837 282.15L0 237H10.9945L27.107 270.657L41.6083 237Z" fill="black"/>
<path d="M108.982 237V300.848H98.0823V247.033H71.07V300.848H60.1704V237H108.982Z" fill="black"/>
<path d="M146.73 237C152.986 237 158.199 239.007 162.369 243.02C166.602 247.033 168.719 252.019 168.719 257.979C168.719 263.877 166.602 268.863 162.369 272.937C158.199 276.951 152.986 278.957 146.73 278.957H133.177V300.848H122.277V237H146.73ZM146.73 269.106C148.31 269.106 149.763 268.833 151.09 268.286C152.48 267.738 153.681 266.978 154.692 266.005C155.703 264.971 156.461 263.786 156.966 262.448C157.535 261.11 157.819 259.62 157.819 257.979C157.819 256.337 157.535 254.847 156.966 253.509C156.461 252.171 155.703 251.016 154.692 250.043C153.681 249.01 152.48 248.219 151.09 247.672C149.763 247.124 148.31 246.851 146.73 246.851H133.177V269.106H146.73Z" fill="black"/>
<path d="M214.738 300.848L210.093 287.987H181.849L177.205 300.848H165.357L189.431 237H202.511L226.49 300.848H214.738ZM185.451 278.136H206.492L195.971 249.314L185.451 278.136Z" fill="black"/>
<path d="M272.674 267.738C275.581 269.198 277.855 271.204 279.498 273.758C281.141 276.312 281.962 279.261 281.962 282.606C281.962 287.835 280.035 292.183 276.181 295.649C272.263 299.115 267.556 300.848 262.059 300.848H233.625V237H259.974C265.408 237 269.989 238.703 273.717 242.108C277.508 245.513 279.403 249.709 279.403 254.695C279.403 260.168 277.16 264.515 272.674 267.738ZM244.524 246.851V263.634H259.974C262.375 263.634 264.397 262.843 266.039 261.262C267.682 259.62 268.504 257.614 268.504 255.242C268.504 252.871 267.682 250.895 266.039 249.314C264.397 247.672 262.375 246.851 259.974 246.851H244.524ZM262.059 290.997C264.586 290.997 266.703 290.146 268.409 288.443C270.178 286.741 271.063 284.612 271.063 282.058C271.063 279.505 270.178 277.376 268.409 275.674C266.703 273.971 264.586 273.12 262.059 273.12H244.524V290.997H262.059Z" fill="black"/>
<path d="M284.22 291.18C286.305 291.484 288.106 291.423 289.623 290.997C291.202 290.511 292.498 289.599 293.509 288.261C294.583 286.923 295.373 285.099 295.878 282.788C296.384 280.417 296.636 277.467 296.636 273.941V237H341.088V300.848H330.188V247.033H307.536V273.758C307.536 279.413 306.904 284.156 305.64 287.987C304.44 291.757 302.702 294.615 300.427 296.561C298.153 298.446 295.689 299.723 293.035 300.392C290.444 301 287.506 301.152 284.22 300.848V291.18Z" fill="black"/>
<path d="M400.1 237V300.848H389.2V277.589H378.679L362.662 300.848H350.34L367.211 276.677C362.788 275.4 359.186 272.998 356.406 269.471C353.626 265.884 352.236 261.901 352.236 257.523C352.236 251.807 354.289 246.972 358.396 243.02C362.567 239.007 367.622 237 373.561 237H400.1ZM389.2 268.194V246.851H373.561C372.108 246.851 370.749 247.124 369.486 247.672C368.222 248.219 367.116 248.979 366.168 249.952C365.221 250.925 364.462 252.08 363.894 253.418C363.388 254.695 363.135 256.063 363.135 257.523C363.135 258.982 363.388 260.381 363.894 261.718C364.462 262.995 365.221 264.12 366.168 265.093C367.116 266.066 368.222 266.826 369.486 267.373C370.749 267.921 372.108 268.194 373.561 268.194H389.2Z" fill="black"/>
<path d="M456.498 237V247.033H437.826V300.848H426.927V247.033H408.16V237H456.498Z" fill="black"/>
<path d="M489.011 258.891C495.267 258.891 500.479 260.928 504.65 265.002C508.883 269.015 511 273.971 511 279.869C511 285.829 508.883 290.815 504.65 294.828C500.479 298.841 495.267 300.848 489.011 300.848H464.558V237H475.458V258.891H489.011ZM489.011 290.997C490.591 290.997 492.044 290.724 493.371 290.176C494.761 289.629 495.962 288.869 496.973 287.896C497.984 286.862 498.742 285.676 499.247 284.339C499.816 283.001 500.1 281.511 500.1 279.869C500.1 278.228 499.816 276.738 499.247 275.4C498.742 274.062 497.984 272.907 496.973 271.934C495.962 270.9 494.761 270.11 493.371 269.562C492.044 269.015 490.591 268.742 489.011 268.742H475.458V290.997H489.011Z" fill="black"/>
<path d="M26.6026 351.346C33.7624 351.346 39.477 353.301 43.7466 357.212C48.0818 361.058 50.2494 366.154 50.2494 372.5C50.2494 378.846 48.0818 383.974 43.7466 387.885C39.4113 391.731 33.6967 393.654 26.6026 393.654H0V326.346H44.3377V341.154H15.7645V351.346H26.6026ZM26.6026 379.231C31.8575 379.231 34.4849 376.987 34.4849 372.5C34.4849 368.013 31.8575 365.769 26.6026 365.769H15.7645V379.231H26.6026Z" fill="#6777FF"/>
<path d="M115.483 384.904C108.454 391.635 99.9811 395 90.0626 395C80.0784 395 71.6049 391.635 64.6423 384.904C57.6796 378.173 54.1983 369.872 54.1983 360C54.1983 350.128 57.6796 341.827 64.6423 335.096C71.6049 328.365 80.0784 325 90.0626 325C99.9811 325 108.454 328.365 115.483 335.096C122.446 341.827 125.927 350.128 125.927 360C125.927 369.872 122.446 378.173 115.483 384.904ZM75.6774 374.423C79.4872 378.141 84.2822 380 90.0626 380C95.7772 380 100.539 378.141 104.349 374.423C108.225 370.641 110.162 365.833 110.162 360C110.162 354.167 108.225 349.359 104.349 345.577C100.539 341.859 95.7772 340 90.0626 340C84.2822 340 79.4872 341.859 75.6774 345.577C71.8677 349.295 69.9628 354.103 69.9628 360C69.9628 365.897 71.8677 370.705 75.6774 374.423Z" fill="#6777FF"/>
<path d="M173.229 393.654V357.115L146.626 393.654H134.803V326.346H150.567V362.885L177.17 326.346H188.993V393.654H173.229Z" fill="#6777FF"/>
<path d="M238.25 326.346H254.014V393.654H238.25V366.923H216.574V393.654H200.809V326.346H216.574V352.115H238.25V326.346Z" fill="#6777FF"/>
<path d="M305.264 326.346V341.154H281.618V393.654H265.853V326.346H305.264Z" fill="#6777FF"/>
<path d="M366.518 384.904C359.49 391.635 351.016 395 341.098 395C331.114 395 322.64 391.635 315.678 384.904C308.715 378.173 305.234 369.872 305.234 360C305.234 350.128 308.715 341.827 315.678 335.096C322.64 328.365 331.114 325 341.098 325C351.016 325 359.49 328.365 366.518 335.096C373.481 341.827 376.962 350.128 376.962 360C376.962 369.872 373.481 378.173 366.518 384.904ZM326.713 374.423C330.523 378.141 335.318 380 341.098 380C346.813 380 351.575 378.141 355.385 374.423C359.26 370.641 361.198 365.833 361.198 360C361.198 354.167 359.26 349.359 355.385 345.577C351.575 341.859 346.813 340 341.098 340C335.318 340 330.523 341.859 326.713 345.577C322.903 349.295 320.998 354.103 320.998 360C320.998 365.897 322.903 370.705 326.713 374.423Z" fill="#6777FF"/>
<path d="M454.808 326.346V393.654H439.044V354.519L421.21 383.077H419.436L401.603 354.519V393.654H385.838V326.346H401.603L420.323 356.25L439.044 326.346H454.808Z" fill="#6777FF"/>
<path d="M479.471 369.615C479.471 367.756 479.865 366.09 480.653 364.615C481.441 363.077 482.394 361.667 483.511 360.385C484.693 359.038 485.974 357.788 487.353 356.635C488.733 355.417 489.981 354.231 491.097 353.077C492.28 351.923 493.265 350.737 494.053 349.519C494.841 348.301 495.235 346.987 495.235 345.577C495.235 341.859 492.805 340 487.944 340C483.215 340 479.668 342.692 477.303 348.077L463.706 340.481C465.874 335.609 469.158 331.827 473.559 329.135C478.026 326.378 483.018 325 488.536 325C494.579 325 499.833 326.731 504.3 330.192C508.767 333.654 511 338.333 511 344.231C511 347.756 510.179 350.769 508.537 353.269C506.895 355.769 505.088 357.949 503.118 359.808C501.147 361.667 499.341 363.365 497.699 364.904C496.057 366.442 495.235 368.013 495.235 369.615H479.471ZM493.955 392.308C492.115 394.103 489.915 395 487.353 395C484.791 395 482.591 394.103 480.752 392.308C478.913 390.513 477.993 388.365 477.993 385.865C477.993 383.365 478.913 381.218 480.752 379.423C482.591 377.628 484.791 376.731 487.353 376.731C489.915 376.731 492.115 377.628 493.955 379.423C495.794 381.218 496.713 383.365 496.713 385.865C496.713 388.365 495.794 390.513 493.955 392.308Z" fill="#6777FF"/>
<path d="M95.6386 74.14C108.273 82.3533 114.59 93.94 114.59 108.9C114.59 122.247 109.815 133.1 100.266 141.46C90.7171 149.82 78.8908 154 64.7874 154H0V0H60.3801C74.0428 0 85.5753 4.10667 94.9775 12.32C104.38 20.3867 109.081 30.9467 109.081 44C109.081 56.4667 104.6 66.5133 95.6386 74.14ZM35.2585 33V60.28H60.3801C64.3467 60.28 67.5788 59.0333 70.0762 56.54C72.5737 53.9 73.8224 50.6 73.8224 46.64C73.8224 42.68 72.5737 39.4533 70.0762 36.96C67.5788 34.32 64.3467 33 60.3801 33H35.2585ZM64.7874 121C69.1948 121 72.7206 119.68 75.365 117.04C78.0094 114.253 79.3316 110.66 79.3316 106.26C79.3316 101.86 78.0094 98.34 75.365 95.7C72.7206 92.9133 69.1948 91.52 64.7874 91.52H35.2585V121H64.7874Z" fill="#6777FF"/>
<path d="M132.133 154V0H167.392V48.4H190.53C205.809 48.4 218.59 53.5333 228.874 63.8C239.304 74.2133 244.52 86.68 244.52 101.2C244.52 115.72 239.304 128.187 228.874 138.6C218.59 148.867 205.809 154 190.53 154H132.133ZM257.742 154V0H293V154H257.742ZM167.392 121H190.53C195.966 121 200.447 119.093 203.972 115.28C207.498 111.467 209.261 106.773 209.261 101.2C209.261 95.6267 207.498 90.9333 203.972 87.12C200.447 83.3067 195.966 81.4 190.53 81.4H167.392V121Z" fill="#6777FF"/>
<path d="M25.5829 177.645V212.355H19.8702V183.099H5.71268V212.355H0V177.645H25.5829Z" fill="black"/>
<path d="M45.3673 177.645C48.6459 177.645 51.378 178.736 53.5638 180.917C55.7826 183.099 56.892 185.81 56.892 189.05C56.892 192.256 55.7826 194.967 53.5638 197.182C51.378 199.364 48.6459 200.455 45.3673 200.455H38.2637V212.355H32.551V177.645H45.3673ZM45.3673 195.099C46.1952 195.099 46.9569 194.95 47.6524 194.653C48.381 194.355 49.0102 193.942 49.54 193.413C50.0699 192.851 50.4673 192.207 50.7323 191.479C51.0303 190.752 51.1793 189.942 51.1793 189.05C51.1793 188.157 51.0303 187.347 50.7323 186.62C50.4673 185.893 50.0699 185.264 49.54 184.736C49.0102 184.174 48.381 183.744 47.6524 183.446C46.9569 183.149 46.1952 183 45.3673 183H38.2637V195.099H45.3673Z" fill="black"/>
<path d="M90.6209 207.793C87.1436 211.264 82.8881 213 77.8543 213C72.8205 213 68.5484 211.264 65.038 207.793C61.5607 204.289 59.8221 200.025 59.8221 195C59.8221 189.975 61.5607 185.727 65.038 182.256C68.5484 178.752 72.8205 177 77.8543 177C82.8881 177 87.1436 178.752 90.6209 182.256C94.1313 185.727 95.8865 189.975 95.8865 195C95.8865 200.025 94.1313 204.289 90.6209 207.793ZM69.0617 203.926C71.4793 206.273 74.4101 207.446 77.8543 207.446C81.3316 207.446 84.2459 206.273 86.5972 203.926C88.9816 201.545 90.1738 198.57 90.1738 195C90.1738 191.43 88.9816 188.471 86.5972 186.124C84.2459 183.744 81.3316 182.554 77.8543 182.554C74.377 182.554 71.4462 183.744 69.0617 186.124C66.7104 188.471 65.5348 191.43 65.5348 195C65.5348 198.537 66.7104 201.512 69.0617 203.926Z" fill="black"/>
<path d="M114.261 191.033C117.474 191.033 120.14 192.041 122.259 194.058C124.379 196.074 125.438 198.62 125.438 201.694C125.438 204.769 124.379 207.314 122.259 209.331C120.14 211.347 117.474 212.355 114.261 212.355H101.097V177.645H122.458V183.099H106.81V191.033H114.261ZM114.261 207C115.851 207 117.159 206.521 118.186 205.562C119.212 204.57 119.726 203.281 119.726 201.694C119.726 200.107 119.212 198.835 118.186 197.876C117.159 196.884 115.851 196.388 114.261 196.388H106.81V207H114.261Z" fill="black"/>
<path d="M158.925 207.793C155.447 211.264 151.192 213 146.158 213C141.124 213 136.852 211.264 133.342 207.793C129.865 204.289 128.126 200.025 128.126 195C128.126 189.975 129.865 185.727 133.342 182.256C136.852 178.752 141.124 177 146.158 177C151.192 177 155.447 178.752 158.925 182.256C162.435 185.727 164.19 189.975 164.19 195C164.19 200.025 162.435 204.289 158.925 207.793ZM137.366 203.926C139.783 206.273 142.714 207.446 146.158 207.446C149.635 207.446 152.55 206.273 154.901 203.926C157.285 201.545 158.478 198.57 158.478 195C158.478 191.43 157.285 188.471 154.901 186.124C152.55 183.744 149.635 182.554 146.158 182.554C142.681 182.554 139.75 183.744 137.366 186.124C135.014 188.471 133.839 191.43 133.839 195C133.839 198.537 135.014 201.512 137.366 203.926Z" fill="black"/>
<path d="M189.867 194.355C191.391 195.149 192.583 196.24 193.444 197.628C194.305 199.017 194.736 200.62 194.736 202.438C194.736 205.281 193.726 207.645 191.705 209.529C189.652 211.413 187.185 212.355 184.304 212.355H169.401V177.645H183.211C186.059 177.645 188.46 178.57 190.414 180.421C192.401 182.273 193.394 184.554 193.394 187.264C193.394 190.24 192.219 192.603 189.867 194.355ZM175.114 183V192.124H183.211C184.469 192.124 185.529 191.694 186.39 190.835C187.251 189.942 187.682 188.851 187.682 187.562C187.682 186.273 187.251 185.198 186.39 184.339C185.529 183.446 184.469 183 183.211 183H175.114ZM184.304 207C185.629 207 186.738 206.537 187.632 205.612C188.559 204.686 189.023 203.529 189.023 202.14C189.023 200.752 188.559 199.595 187.632 198.669C186.738 197.744 185.629 197.281 184.304 197.281H175.114V207H184.304Z" fill="black"/>
<path d="M222.373 212.355L219.939 205.364H205.135L202.701 212.355H196.492L209.109 177.645H215.965L228.532 212.355H222.373ZM207.023 200.008H218.051L212.537 184.339L207.023 200.008Z" fill="black"/>
<path d="M229.683 207.099C230.776 207.264 231.719 207.231 232.514 207C233.342 206.736 234.021 206.24 234.551 205.512C235.114 204.785 235.528 203.793 235.793 202.537C236.058 201.248 236.19 199.645 236.19 197.727V177.645H259.488V212.355H253.775V183.099H241.903V197.628C241.903 200.702 241.572 203.281 240.909 205.364C240.28 207.413 239.369 208.967 238.177 210.025C236.985 211.05 235.694 211.744 234.303 212.107C232.945 212.438 231.405 212.521 229.683 212.355V207.099Z" fill="black"/>
<path d="M287.287 212.355V188.802L270.894 212.355H266.424V177.645H272.136V201.198L288.529 177.645H293V212.355H287.287Z" fill="black"/>
</svg>
