<svg width="281" height="58" viewBox="0 0 281 58" fill="none" xmlns="http://www.w3.org/2000/svg">
<path d="M108.308 0H112.353L104.786 17.0451C102.926 21.219 99.9159 23.1857 95.7547 22.9454V19.438C97.1495 19.5691 98.2654 19.3834 99.1023 18.8808C99.9391 18.3563 100.613 17.4713 101.125 16.2257L93 0H97.0449L102.973 12.0955L108.308 0Z" fill="black"/>
<path d="M133.095 0V22.9454H129.085V3.6057H119.147V22.9454H115.137V0H133.095Z" fill="black"/>
<path d="M146.983 0C149.284 0 151.202 0.721141 152.736 2.16342C154.294 3.6057 155.073 5.39763 155.073 7.53919C155.073 9.65891 154.294 11.4508 152.736 12.915C151.202 14.3572 149.284 15.0784 146.983 15.0784H141.997V22.9454H137.986V0H146.983ZM146.983 11.5382C147.564 11.5382 148.099 11.4399 148.587 11.2432C149.098 11.0466 149.54 10.7734 149.912 10.4238C150.284 10.0523 150.563 9.62613 150.749 9.14537C150.958 8.66461 151.063 8.12922 151.063 7.53919C151.063 6.94917 150.958 6.41378 150.749 5.93302C150.563 5.45226 150.284 5.03706 149.912 4.68741C149.54 4.31592 149.098 4.03183 148.587 3.83516C148.099 3.63848 147.564 3.54014 146.983 3.54014H141.997V11.5382H146.983Z" fill="black"/>
<path d="M172.003 22.9454L170.295 18.3235H159.903L158.195 22.9454H153.836L162.693 0H167.505L176.327 22.9454H172.003ZM161.228 14.7834H168.97L165.099 4.42518L161.228 14.7834Z" fill="black"/>
<path d="M193.318 11.0466C194.388 11.571 195.225 12.2922 195.829 13.21C196.433 14.1278 196.736 15.1877 196.736 16.3896C196.736 18.2689 196.027 19.8314 194.609 21.077C193.167 22.3226 191.435 22.9454 189.413 22.9454H178.952V0H188.646C190.645 0 192.33 0.611876 193.702 1.83563C195.097 3.05938 195.794 4.56722 195.794 6.35915C195.794 8.32589 194.969 9.88836 193.318 11.0466ZM182.962 3.54014V9.5715H188.646C189.529 9.5715 190.273 9.28741 190.878 8.71924C191.482 8.12922 191.784 7.40808 191.784 6.55582C191.784 5.70356 191.482 4.99335 190.878 4.42518C190.273 3.83516 189.529 3.54014 188.646 3.54014H182.962ZM189.413 19.4052C190.343 19.4052 191.122 19.0993 191.749 18.4874C192.4 17.8755 192.726 17.1107 192.726 16.1929C192.726 15.2751 192.4 14.5102 191.749 13.8983C191.122 13.2865 190.343 12.9805 189.413 12.9805H182.962V19.4052H189.413Z" fill="black"/>
<path d="M197.566 19.4708C198.333 19.58 198.996 19.5582 199.554 19.4052C200.135 19.2304 200.612 18.9026 200.984 18.4219C201.379 17.9411 201.669 17.2855 201.855 16.4551C202.041 15.6029 202.134 14.543 202.134 13.2755V0H218.488V22.9454H214.478V3.6057H206.144V13.21C206.144 15.2423 205.912 16.9468 205.447 18.3235C205.005 19.6784 204.366 20.7055 203.529 21.4048C202.692 22.0822 201.786 22.5411 200.809 22.7815C199.856 23 198.775 23.0546 197.566 22.9454V19.4708Z" fill="black"/>
<path d="M240.199 0V22.9454H236.189V14.5867H232.318L226.425 22.9454H221.892L228.099 14.2589C226.472 13.8 225.147 12.9368 224.124 11.6694C223.101 10.38 222.59 8.94869 222.59 7.3753C222.59 5.32114 223.345 3.58385 224.856 2.16342C226.391 0.721141 228.25 0 230.435 0H240.199ZM236.189 11.2105V3.54014H230.435C229.901 3.54014 229.401 3.63848 228.936 3.83516C228.471 4.03183 228.064 4.30499 227.716 4.65463C227.367 5.00428 227.088 5.41948 226.879 5.90024C226.693 6.35915 226.6 6.85083 226.6 7.3753C226.6 7.89976 226.693 8.40238 226.879 8.88314C227.088 9.34204 227.367 9.74632 227.716 10.096C228.064 10.4456 228.471 10.7188 228.936 10.9154C229.401 11.1121 229.901 11.2105 230.435 11.2105H236.189Z" fill="black"/>
<path d="M260.948 0V3.6057H254.079V22.9454H250.069V3.6057H243.165V0H260.948Z" fill="black"/>
<path d="M272.91 7.86698C275.212 7.86698 277.129 8.59905 278.664 10.0632C280.221 11.5055 281 13.2865 281 15.4062C281 17.5477 280.221 19.3397 278.664 20.7819C277.129 22.2242 275.212 22.9454 272.91 22.9454H263.914V0H267.924V7.86698H272.91ZM272.91 19.4052C273.491 19.4052 274.026 19.3069 274.514 19.1102C275.026 18.9135 275.467 18.6404 275.839 18.2907C276.211 17.9192 276.49 17.4931 276.676 17.0124C276.885 16.5316 276.99 15.9962 276.99 15.4062C276.99 14.8162 276.885 14.2808 276.676 13.8C276.49 13.3192 276.211 12.904 275.839 12.5544C275.467 12.1829 275.026 11.8988 274.514 11.7021C274.026 11.5055 273.491 11.4071 272.91 11.4071H267.924V19.4052H272.91Z" fill="black"/>
<path d="M102.787 41.7857C105.421 41.7857 107.524 42.5119 109.095 43.9643C110.69 45.3929 111.487 47.2857 111.487 49.6429C111.487 52 110.69 53.9048 109.095 55.3571C107.5 56.7857 105.397 57.5 102.787 57.5H93V32.5H109.312V38H98.7999V41.7857H102.787ZM102.787 52.1429C104.721 52.1429 105.687 51.3095 105.687 49.6429C105.687 47.9762 104.721 47.1429 102.787 47.1429H98.7999V52.1429H102.787Z" fill="#6777FF"/>
<path d="M135.487 54.25C132.901 56.75 129.784 58 126.135 58C122.461 58 119.344 56.75 116.782 54.25C114.221 51.75 112.94 48.6667 112.94 45C112.94 41.3333 114.221 38.25 116.782 35.75C119.344 33.25 122.461 32 126.135 32C129.784 32 132.901 33.25 135.487 35.75C138.048 38.25 139.329 41.3333 139.329 45C139.329 48.6667 138.048 51.75 135.487 54.25ZM120.842 50.3571C122.244 51.7381 124.008 52.4286 126.135 52.4286C128.237 52.4286 129.989 51.7381 131.391 50.3571C132.816 48.9524 133.529 47.1667 133.529 45C133.529 42.8333 132.816 41.0476 131.391 39.6429C129.989 38.2619 128.237 37.5714 126.135 37.5714C124.008 37.5714 122.244 38.2619 120.842 39.6429C119.441 41.0238 118.74 42.8095 118.74 45C118.74 47.1905 119.441 48.9762 120.842 50.3571Z" fill="#6777FF"/>
<path d="M156.732 57.5V43.9286L146.945 57.5H142.595V32.5H148.395V46.0714L158.182 32.5H162.532V57.5H156.732Z" fill="#6777FF"/>
<path d="M180.654 32.5H186.453V57.5H180.654V47.5714H172.679V57.5H166.879V32.5H172.679V42.0714H180.654V32.5Z" fill="#6777FF"/>
<path d="M205.309 32.5V38H196.609V57.5H190.809V32.5H205.309Z" fill="#6777FF"/>
<path d="M227.844 54.25C225.259 56.75 222.141 58 218.492 58C214.819 58 211.701 56.75 209.14 54.25C206.578 51.75 205.297 48.6667 205.297 45C205.297 41.3333 206.578 38.25 209.14 35.75C211.701 33.25 214.819 32 218.492 32C222.141 32 225.259 33.25 227.844 35.75C230.406 38.25 231.687 41.3333 231.687 45C231.687 48.6667 230.406 51.75 227.844 54.25ZM213.2 50.3571C214.601 51.7381 216.365 52.4286 218.492 52.4286C220.594 52.4286 222.347 51.7381 223.748 50.3571C225.174 48.9524 225.887 47.1667 225.887 45C225.887 42.8333 225.174 41.0476 223.748 39.6429C222.347 38.2619 220.594 37.5714 218.492 37.5714C216.365 37.5714 214.601 38.2619 213.2 39.6429C211.798 41.0238 211.097 42.8095 211.097 45C211.097 47.1905 211.798 48.9762 213.2 50.3571Z" fill="#6777FF"/>
<path d="M260.327 32.5V57.5H254.527V42.9643L247.966 53.5714H247.313L240.752 42.9643V57.5H234.952V32.5H240.752L247.639 43.6071L254.527 32.5H260.327Z" fill="#6777FF"/>
<path d="M269.4 48.5714C269.4 47.881 269.545 47.2619 269.835 46.7143C270.125 46.1429 270.476 45.619 270.886 45.1429C271.321 44.6429 271.793 44.1786 272.3 43.75C272.808 43.2976 273.267 42.8571 273.678 42.4286C274.113 42 274.475 41.5595 274.765 41.1071C275.055 40.6548 275.2 40.1667 275.2 39.6429C275.2 38.2619 274.306 37.5714 272.518 37.5714C270.778 37.5714 269.473 38.5714 268.603 40.5714L263.6 37.75C264.398 35.9405 265.606 34.5357 267.225 33.5357C268.869 32.5119 270.705 32 272.735 32C274.958 32 276.892 32.6429 278.535 33.9286C280.178 35.2143 281 36.9524 281 39.1429C281 40.4524 280.698 41.5714 280.094 42.5C279.49 43.4286 278.825 44.2381 278.1 44.9286C277.375 45.619 276.711 46.25 276.106 46.8214C275.502 47.3929 275.2 47.9762 275.2 48.5714H269.4ZM274.729 57C274.052 57.6667 273.243 58 272.3 58C271.358 58 270.548 57.6667 269.872 57C269.195 56.3333 268.857 55.5357 268.857 54.6071C268.857 53.6786 269.195 52.881 269.872 52.2143C270.548 51.5476 271.358 51.2143 272.3 51.2143C273.243 51.2143 274.052 51.5476 274.729 52.2143C275.406 52.881 275.744 53.6786 275.744 54.6071C275.744 55.5357 275.406 56.3333 274.729 57Z" fill="#6777FF"/>
<path d="M26.1129 20.7014C29.5626 22.9948 31.2874 26.23 31.2874 30.4071C31.2874 34.1338 29.9837 37.1643 27.3765 39.4986C24.7692 41.8329 21.5402 43 17.6894 43H0V0H16.486C20.2165 0 23.3653 1.14667 25.9324 3.44C28.4996 5.69238 29.7832 8.64095 29.7832 12.2857C29.7832 15.7667 28.5598 18.5719 26.1129 20.7014ZM9.62689 9.21429V16.8314H16.486C17.5691 16.8314 18.4515 16.4833 19.1334 15.7871C19.8153 15.05 20.1563 14.1286 20.1563 13.0229C20.1563 11.9171 19.8153 11.0162 19.1334 10.32C18.4515 9.58286 17.5691 9.21429 16.486 9.21429H9.62689ZM17.6894 33.7857C18.8928 33.7857 19.8555 33.4171 20.5775 32.68C21.2995 31.9019 21.6605 30.8986 21.6605 29.67C21.6605 28.4414 21.2995 27.4586 20.5775 26.7214C19.8555 25.9433 18.8928 25.5543 17.6894 25.5543H9.62689V33.7857H17.6894Z" fill="#6777FF"/>
<path d="M36.0773 43V0H45.7042V13.5143H52.0219C56.1935 13.5143 59.6833 14.9476 62.4911 17.8143C65.3391 20.7219 66.763 24.2029 66.763 28.2571C66.763 32.3114 65.3391 35.7924 62.4911 38.7C59.6833 41.5667 56.1935 43 52.0219 43H36.0773ZM70.3731 43V0H80V43H70.3731ZM45.7042 33.7857H52.0219C53.506 33.7857 54.7294 33.2533 55.6921 32.1886C56.6548 31.1238 57.1361 29.8133 57.1361 28.2571C57.1361 26.701 56.6548 25.3905 55.6921 24.3257C54.7294 23.261 53.506 22.7286 52.0219 22.7286H45.7042V33.7857Z" fill="#6777FF"/>
<path d="M6.98509 49.1612V57.8388H5.42531V50.5248H1.55978V57.8388H0V49.1612H6.98509Z" fill="black"/>
<path d="M12.387 49.1612C13.2822 49.1612 14.0281 49.4339 14.6249 49.9793C15.2307 50.5248 15.5337 51.2025 15.5337 52.0124C15.5337 52.814 15.2307 53.4917 14.6249 54.0455C14.0281 54.5909 13.2822 54.8636 12.387 54.8636H10.4474V57.8388H8.88765V49.1612H12.387ZM12.387 53.5248C12.613 53.5248 12.821 53.4876 13.0109 53.4132C13.2098 53.3388 13.3816 53.2355 13.5263 53.1033C13.671 52.9628 13.7795 52.8017 13.8518 52.6198C13.9332 52.438 13.9739 52.2355 13.9739 52.0124C13.9739 51.7893 13.9332 51.5868 13.8518 51.405C13.7795 51.2231 13.671 51.0661 13.5263 50.9339C13.3816 50.7934 13.2098 50.686 13.0109 50.6116C12.821 50.5372 12.613 50.5 12.387 50.5H10.4474V53.5248H12.387Z" fill="black"/>
<path d="M24.7429 56.6983C23.7935 57.5661 22.6316 58 21.2571 58C19.8827 58 18.7163 57.5661 17.7578 56.6983C16.8084 55.8223 16.3337 54.7562 16.3337 53.5C16.3337 52.2438 16.8084 51.1818 17.7578 50.314C18.7163 49.438 19.8827 49 21.2571 49C22.6316 49 23.7935 49.438 24.7429 50.314C25.7014 51.1818 26.1806 52.2438 26.1806 53.5C26.1806 54.7562 25.7014 55.8223 24.7429 56.6983ZM18.8564 55.7314C19.5165 56.3182 20.3168 56.6116 21.2571 56.6116C22.2066 56.6116 23.0023 56.3182 23.6443 55.7314C24.2953 55.1364 24.6208 54.3926 24.6208 53.5C24.6208 52.6074 24.2953 51.8678 23.6443 51.281C23.0023 50.686 22.2066 50.3884 21.2571 50.3884C20.3077 50.3884 19.5075 50.686 18.8564 51.281C18.2145 51.8678 17.8935 52.6074 17.8935 53.5C17.8935 54.3843 18.2145 55.1281 18.8564 55.7314Z" fill="black"/>
<path d="M31.1976 52.5083C32.0747 52.5083 32.8026 52.7603 33.3813 53.2645C33.96 53.7686 34.2494 54.405 34.2494 55.1736C34.2494 55.9421 33.96 56.5785 33.3813 57.0826C32.8026 57.5868 32.0747 57.8388 31.1976 57.8388H27.6034V49.1612H33.4356V50.5248H29.1632V52.5083H31.1976ZM31.1976 56.5C31.6317 56.5 31.9888 56.3802 32.2691 56.1405C32.5495 55.8926 32.6896 55.5702 32.6896 55.1736C32.6896 54.7769 32.5495 54.4587 32.2691 54.219C31.9888 53.9711 31.6317 53.8471 31.1976 53.8471H29.1632V56.5H31.1976Z" fill="black"/>
<path d="M43.3924 56.6983C42.443 57.5661 41.2811 58 39.9067 58C38.5322 58 37.3658 57.5661 36.4073 56.6983C35.4579 55.8223 34.9832 54.7562 34.9832 53.5C34.9832 52.2438 35.4579 51.1818 36.4073 50.314C37.3658 49.438 38.5322 49 39.9067 49C41.2811 49 42.443 49.438 43.3924 50.314C44.3509 51.1818 44.8301 52.2438 44.8301 53.5C44.8301 54.7562 44.3509 55.8223 43.3924 56.6983ZM37.506 55.7314C38.166 56.3182 38.9663 56.6116 39.9067 56.6116C40.8561 56.6116 41.6518 56.3182 42.2938 55.7314C42.9448 55.1364 43.2703 54.3926 43.2703 53.5C43.2703 52.6074 42.9448 51.8678 42.2938 51.281C41.6518 50.686 40.8561 50.3884 39.9067 50.3884C38.9572 50.3884 38.157 50.686 37.506 51.281C36.864 51.8678 36.543 52.6074 36.543 53.5C36.543 54.3843 36.864 55.1281 37.506 55.7314Z" fill="black"/>
<path d="M51.841 53.3388C52.2569 53.5372 52.5824 53.8099 52.8175 54.157C53.0526 54.5041 53.1702 54.905 53.1702 55.3595C53.1702 56.0702 52.8944 56.6612 52.3428 57.1322C51.7822 57.6033 51.1085 57.8388 50.3219 57.8388H46.2529V49.1612H50.0235C50.8011 49.1612 51.4567 49.3926 51.9901 49.8554C52.5327 50.3182 52.8039 50.8884 52.8039 51.5661C52.8039 52.3099 52.4829 52.9008 51.841 53.3388ZM47.8127 50.5V52.781H50.0235C50.3671 52.781 50.6564 52.6736 50.8915 52.4587C51.1266 52.2355 51.2442 51.9628 51.2442 51.6405C51.2442 51.3182 51.1266 51.0496 50.8915 50.8347C50.6564 50.6116 50.3671 50.5 50.0235 50.5H47.8127ZM50.3219 56.5C50.6836 56.5 50.9865 56.3843 51.2306 56.1529C51.4838 55.9215 51.6104 55.6322 51.6104 55.2851C51.6104 54.938 51.4838 54.6488 51.2306 54.4174C50.9865 54.186 50.6836 54.0702 50.3219 54.0702H47.8127V56.5H50.3219Z" fill="black"/>
<path d="M60.7161 57.8388L60.0515 56.0909H56.0096L55.345 57.8388H53.6496L57.0947 49.1612H58.9664L62.3979 57.8388H60.7161ZM56.5251 54.7521H59.5361L58.0306 50.8347L56.5251 54.7521Z" fill="black"/>
<path d="M62.712 56.5248C63.0104 56.5661 63.2681 56.5579 63.4851 56.5C63.7112 56.4339 63.8965 56.3099 64.0412 56.1281C64.1949 55.9463 64.308 55.6983 64.3803 55.3843C64.4526 55.062 64.4888 54.6612 64.4888 54.1818V49.1612H70.85V57.8388H69.2902V50.5248H66.0486V54.157C66.0486 54.9256 65.9582 55.5702 65.7773 56.0909C65.6055 56.6033 65.3569 56.9917 65.0313 57.2562C64.7058 57.5124 64.3532 57.686 63.9734 57.7769C63.6027 57.8595 63.1822 57.8802 62.712 57.8388V56.5248Z" fill="black"/>
<path d="M78.4402 57.8388V51.9504L73.9643 57.8388H72.7437V49.1612H74.3034V55.0496L78.7793 49.1612H80V57.8388H78.4402Z" fill="black"/>
</svg>
