<svg width="527" height="342" viewBox="0 0 527 342" fill="none" xmlns="http://www.w3.org/2000/svg">
<path d="M25.3567 209.166C25.0952 211.373 26.1409 211.373 26.4023 213.579C25.8795 214.315 25.3567 214.315 25.0952 215.051C23.7882 212.844 23.2654 209.166 22.7426 205.488C22.4812 206.223 21.9583 207.694 21.4355 209.166C20.9127 205.488 20.9127 203.281 20.6513 199.603C19.3443 199.603 18.0372 199.603 16.9916 199.603C16.4688 201.074 15.6845 203.281 14.9003 205.488C14.6389 204.016 14.6389 203.281 14.3775 201.81C13.8547 199.603 13.3318 198.132 12.809 195.925C12.2862 198.132 12.0248 200.338 11.7634 202.545C11.2406 202.545 10.9792 202.545 10.4564 202.545C10.1949 201.074 9.93354 198.867 9.67213 196.66C8.8879 196.66 8.10367 196.66 7.58086 195.925C6.0124 192.247 4.70536 188.569 3.39832 185.626C3.39832 184.155 3.39832 183.419 3.39832 181.948C4.96677 180.477 6.53522 181.213 8.10367 181.213C8.36508 181.948 8.8879 183.419 9.41072 184.891C9.67213 181.948 9.67213 179.006 9.93354 176.063C10.7178 173.857 11.7634 175.328 12.5476 175.328C13.0704 174.592 13.3318 173.121 13.5933 172.385C14.1161 173.121 14.3775 173.857 14.9003 175.328C15.1617 171.65 15.1617 168.707 15.4231 166.5C17.253 167.972 17.7758 174.592 19.6057 175.328C20.3899 177.535 20.3899 177.535 21.6969 177.535C21.6969 176.799 21.9583 176.799 21.9583 176.063C21.9583 170.914 21.9583 165.765 21.9583 161.351C21.4355 159.88 21.1741 159.144 20.9127 157.673C20.9127 155.466 20.9127 153.26 21.9583 153.26C23.004 153.26 24.311 158.409 25.6181 165.029C26.1409 165.029 26.6637 165.765 27.1865 166.5C27.4479 166.5 27.4479 167.236 27.4479 167.236C27.4479 168.707 27.4479 169.443 27.4479 170.179C27.9707 171.65 28.4936 173.121 29.0164 174.592C30.3234 173.121 30.5848 168.707 31.3691 165.765C32.1533 162.087 33.7217 162.087 34.7674 160.616C35.0288 161.351 35.2902 162.087 35.5516 162.822C36.5972 162.087 36.3358 159.88 36.0744 158.409C35.5516 156.202 34.7674 154.731 35.2902 151.788C36.3358 149.581 37.6429 151.053 38.9499 151.053C39.4727 150.317 39.7341 148.846 39.9955 148.11C41.0412 146.639 41.564 150.317 42.3482 151.053C42.871 150.317 43.1325 148.846 43.6553 148.11C44.1781 148.846 44.7009 150.317 45.4851 151.053C45.7465 150.317 46.2694 148.846 46.7922 147.375C46.7922 146.639 46.5308 145.903 46.5308 145.168C44.9623 141.49 42.871 139.283 40.7798 138.547C39.9955 135.605 40.5184 131.927 40.257 128.249C39.4727 127.513 38.6885 126.042 38.1657 125.306C38.1657 123.835 38.1657 123.1 38.1657 122.364C39.7341 116.479 42.6096 116.479 44.4395 111.33C46.5308 111.33 48.8834 111.33 50.9747 111.33C51.2361 110.594 51.4975 109.859 52.0204 108.387C54.6344 108.387 57.2485 108.387 59.8626 108.387C60.3854 106.916 60.6468 106.181 60.9082 105.445C62.4767 103.974 64.568 106.181 66.1364 103.238C64.3066 101.031 62.7381 102.503 61.1697 101.767C59.6012 101.767 57.7713 101.767 56.2029 101.767C54.6344 101.767 52.8046 101.767 51.2361 101.767C49.6677 101.767 48.0992 101.767 46.5308 101.767C46.0079 100.296 45.7465 99.5602 45.4851 98.8246C38.9499 98.8246 32.1533 98.8246 25.6181 98.8246C25.0952 98.089 24.8338 96.6178 24.311 95.8821C21.4355 95.8821 18.56 95.8821 15.4231 95.8821C15.1617 95.1465 14.9003 94.4109 14.3775 92.9397C13.3318 92.9397 12.0248 92.9397 10.9792 92.9397C10.4564 91.4685 10.1949 90.7329 9.93354 89.9973C9.14931 89.9973 8.36508 89.2617 7.31945 89.2617C7.31945 87.7905 7.05804 86.3193 6.79663 84.1124C6.27381 83.3768 5.48959 81.17 4.70536 79.6988C4.96677 73.8139 6.79663 72.3427 7.58086 68.6647C8.36508 68.6647 9.14931 68.6647 9.67213 68.6647C10.9792 67.1935 11.2406 66.4578 11.502 65.7222C12.809 65.7222 13.8547 65.7222 14.9003 65.7222C15.4231 67.1935 15.6845 67.9291 16.2073 68.6647C16.4688 66.4578 16.4688 64.9866 16.4688 63.5154C17.5144 60.573 18.8214 62.7798 20.1285 62.0442C20.6513 63.5154 20.9127 64.251 21.4355 65.7222C21.9583 63.5154 22.4812 60.573 23.004 57.6306C21.9583 54.6881 20.9127 51.7457 19.8671 48.8033C20.9127 45.1252 22.2197 42.1828 23.2654 39.2404C24.311 37.7691 25.6181 38.5048 26.9251 37.7691C27.1865 37.0335 27.7093 36.2979 28.2321 34.8267C29.5392 34.8267 31.1076 34.8267 32.4147 34.8267C32.9375 33.3555 33.1989 32.6199 33.4603 31.8843C36.5972 31.8843 40.257 31.8843 43.3939 31.8843C44.1781 30.4131 44.4395 30.4131 44.7009 28.9419C48.3606 28.9419 52.0203 28.9419 55.6801 28.9419C56.2029 28.2062 56.4643 26.735 56.9871 25.9994C62.2153 25.9994 67.1821 25.9994 72.4102 25.9994C72.6716 25.2638 73.1945 23.7926 73.4559 23.057C73.9787 23.7926 74.2401 25.2638 74.7629 26.735C75.2857 25.9994 75.8085 25.2638 76.8542 23.7926C77.1156 23.7926 77.377 24.5282 77.8998 25.9994C78.1612 25.2638 78.4226 23.7926 78.9455 23.057C79.2069 23.7926 79.7297 24.5282 79.9911 25.9994C80.2525 25.2638 80.5139 24.5282 80.7753 23.7926C81.0367 23.7926 81.0367 23.057 81.2981 23.057C88.6176 23.057 95.937 23.057 103.256 23.057C103.518 22.3214 103.779 21.5858 104.041 20.8502C104.302 20.8502 104.302 20.1146 104.564 20.1146C114.758 20.1146 125.215 20.1146 135.41 20.1146C135.671 19.379 135.933 18.6434 136.455 17.1721C141.945 17.1721 147.696 17.1721 153.186 17.1721C153.447 15.7009 153.447 14.9653 153.708 14.2297C156.584 14.2297 159.459 13.4941 162.335 13.4941L162.596 12.7585C158.414 11.2873 156.845 11.2873 153.708 14.9653C153.186 14.9653 152.663 14.9653 152.14 14.9653C151.617 14.2297 151.356 12.7585 151.094 12.0229C149.787 10.5517 149.526 14.2297 148.48 14.9653C147.957 14.2297 147.435 13.4941 146.389 12.0229C142.729 12.0229 138.547 12.0229 134.364 12.0229C134.103 12.7585 133.841 13.4941 133.318 14.9653C123.908 14.9653 113.974 14.9653 104.564 14.9653C104.041 16.4365 103.779 17.1721 103.518 17.9077C102.211 17.9077 100.904 18.6434 99.5967 17.1721C99.5967 15.7009 99.5967 14.2297 99.5967 13.4941C99.8582 12.7585 99.8582 12.0229 100.12 12.0229C106.132 12.0229 111.883 12.0229 117.634 12.0229C118.157 11.2873 118.418 9.81606 118.941 9.08045C119.202 9.81606 119.725 11.2873 119.987 12.0229C120.248 9.81606 120.509 9.08045 120.771 8.34485C121.032 9.08045 121.555 9.81606 122.078 10.5517C122.862 10.5517 124.169 10.5517 125.476 10.5517C125.999 10.5517 126.26 6.87363 127.567 7.60924C127.829 8.34485 128.352 9.08045 128.613 10.5517C128.875 9.81606 129.397 8.34485 129.659 7.60924C142.468 7.60924 155.538 7.60924 168.347 7.60924C168.87 6.87363 169.132 5.40241 169.393 4.66681C169.654 5.40241 169.916 6.13802 170.439 7.60924C170.7 6.87363 171.223 6.13802 171.746 5.40242C173.053 5.40242 174.621 5.40242 176.19 5.40242C176.451 6.13802 176.712 6.87363 177.235 7.60924C177.497 6.87363 178.019 6.13802 178.281 4.66681C178.542 5.40241 179.065 6.13802 179.326 7.60924C179.588 6.87363 179.849 6.13802 180.111 5.40242C180.372 5.40242 180.633 4.66681 181.156 4.66681C193.443 4.66681 205.729 4.66681 218.015 4.66681C218.538 3.9312 218.799 2.45998 219.061 1.72438C219.583 2.45998 219.845 3.9312 220.106 4.66681C221.413 6.13802 221.675 2.45998 222.982 1.72438C223.243 2.45998 224.027 3.19559 224.55 4.66681C224.812 3.9312 225.073 3.19559 225.596 2.45998C265.069 2.45998 304.803 2.45998 344.014 2.45998C344.275 3.19559 344.537 3.9312 345.06 5.40242C345.321 4.66681 345.844 3.19559 346.105 2.45998C347.151 2.45998 348.196 2.45998 349.504 2.45998C350.026 3.19559 350.288 4.66681 350.549 5.40242C351.333 5.40242 352.118 5.40242 352.64 5.40242C353.163 4.66681 353.425 3.19559 353.686 2.45998C356.3 2.45998 358.914 2.45998 361.528 2.45998C361.79 3.19559 362.051 3.9312 362.313 4.66681C362.835 3.9312 363.358 3.19559 364.142 1.72438C364.665 2.45998 365.188 3.9312 365.711 4.66681C365.972 3.9312 366.495 3.19559 366.757 1.72438C367.541 1.72438 368.064 1.72438 368.848 1.72438C369.109 2.45998 369.632 3.9312 369.893 4.66681C370.416 3.9312 370.678 2.45998 371.2 0.98877C371.723 1.72438 372.246 2.45998 373.292 3.9312C373.553 3.19559 374.076 2.45998 374.86 0.98877C375.383 1.72438 375.906 3.19559 376.429 3.9312C376.951 3.19559 377.474 1.72438 377.997 0.98877C378.52 2.45998 379.043 3.19559 379.566 4.66681C380.088 3.9312 380.35 2.45998 380.873 0.98877C381.395 1.72438 381.918 2.45998 383.225 4.66681C387.146 4.66681 391.59 4.66681 396.034 4.66681C396.296 6.13802 396.296 6.87363 396.557 7.60924C395.511 7.60924 394.727 7.60924 393.943 7.60924C393.42 8.34485 393.159 9.81606 392.897 10.5517C392.636 9.81606 392.375 9.08045 392.113 8.34485C384.009 6.87363 370.939 6.87363 367.018 9.08045L367.279 9.81606C367.541 9.81606 368.064 10.5517 368.325 10.5517C374.86 10.5517 381.134 10.5517 387.408 10.5517C387.669 11.2873 387.931 12.0229 388.453 13.4941C392.113 13.4941 395.773 13.4941 399.433 13.4941C399.955 14.9653 400.217 15.7009 400.478 16.4365C405.184 16.4365 410.15 16.4365 414.856 16.4365C415.379 17.9077 415.64 18.6434 415.901 19.379C421.391 19.379 427.142 19.379 432.37 19.379C432.893 20.8502 433.154 21.5858 433.416 22.3214C435.507 22.3214 437.86 22.3214 439.951 22.3214C440.474 23.057 440.735 24.5282 441.258 25.2638C442.826 25.2638 444.134 25.2638 445.702 25.2638C446.225 25.9994 446.486 27.4706 447.009 28.2063C449.623 28.2063 452.237 28.2063 454.59 28.2063C454.851 28.9419 455.113 29.6775 455.635 31.1487C457.465 31.8843 459.295 31.1487 461.387 31.8843C461.648 32.6199 461.909 33.3555 462.432 34.8267C465.046 34.8267 467.66 34.8267 470.274 34.8267C470.797 36.2979 471.059 37.0335 471.32 37.7691C471.581 37.0335 472.104 36.2979 472.366 34.8267C472.627 35.5623 473.15 36.2979 473.411 37.7691C475.241 37.7691 477.071 37.7691 478.901 37.7691C479.424 39.2404 479.685 40.7116 480.208 42.1828C480.208 42.1828 479.947 43.654 479.685 43.654C477.594 43.654 475.241 43.654 473.15 43.654C472.888 43.654 472.888 44.3896 472.888 44.3896C473.15 46.5964 473.934 45.8608 474.457 46.5964C474.98 48.0677 475.764 50.2745 476.548 52.4813C476.81 51.7457 477.332 51.0101 477.855 49.5389C479.685 49.5389 481.515 49.5389 483.345 49.5389C483.606 50.2745 484.129 51.7457 484.39 52.4813C485.436 52.4813 486.482 52.4813 487.527 52.4813C488.05 53.2169 488.312 54.6881 488.834 55.4237C489.619 55.4237 490.403 55.4237 490.926 55.4237C491.449 56.1593 491.71 57.6306 492.233 58.3662C493.278 58.3662 494.324 58.3662 495.37 58.3662C495.892 61.3086 496.415 63.5154 496.938 66.4578C496.677 67.1935 496.415 67.9291 495.892 69.4003C496.677 71.6071 497.722 70.1359 498.507 70.8715C499.291 68.6647 500.075 66.4578 500.859 64.9866C501.643 64.9866 502.428 64.9866 502.95 64.9866C504.258 67.9291 503.212 70.1359 502.428 73.0783C503.735 75.2851 505.303 74.5495 506.349 73.8139C506.872 73.0783 507.133 72.3427 507.656 70.8715C507.656 73.0783 507.917 74.5495 507.917 76.0207C507.133 76.7563 506.61 77.492 505.826 78.2276C506.087 79.6988 506.349 81.17 506.61 82.6412C505.826 84.848 504.78 82.6412 503.996 84.1124C503.473 82.6412 503.212 81.9056 502.689 80.4344C502.428 81.9056 502.428 83.3768 502.166 84.848C503.473 87.0549 504.78 87.7905 505.565 91.4685C504.78 92.2041 504.258 92.2041 503.735 93.6753C503.212 95.1465 502.689 96.6178 501.905 95.8821C500.598 93.6753 501.643 90.7329 501.121 87.7905C500.598 86.3193 499.814 87.0549 499.029 87.0549C499.029 84.848 499.029 81.9056 499.029 78.9632C498.507 78.2276 498.245 78.2276 497.722 77.492C496.415 78.9632 496.154 83.3768 494.585 83.3768C493.278 84.1124 492.756 86.3192 492.233 88.5261C492.233 93.6753 494.324 93.6753 494.324 98.089C493.801 98.089 493.278 98.089 492.494 98.089C492.233 99.5602 492.233 101.031 491.971 101.767C491.71 103.238 491.449 104.709 490.926 106.181C491.449 107.652 491.971 109.123 492.494 109.859C493.017 108.387 493.54 106.916 494.063 105.445C494.063 102.503 494.063 100.296 494.063 98.089C494.324 98.089 494.585 98.8246 495.108 99.5602C495.108 102.503 495.108 105.445 495.108 109.123C495.108 110.594 493.54 111.33 494.324 115.744C494.324 115.744 494.847 117.215 495.37 118.686C496.415 117.95 496.677 114.272 498.245 113.537C498.245 113.537 499.029 113.537 499.814 113.537C500.336 112.801 500.598 111.33 501.121 110.594C501.643 112.801 502.166 114.272 502.689 116.479C503.212 119.422 503.473 122.364 504.258 125.306C504.78 127.513 505.826 129.72 506.61 131.927C507.656 131.927 508.702 131.927 510.009 131.927C510.531 134.134 511.316 136.341 511.838 137.812C512.623 137.812 512.884 137.812 513.407 137.812C513.668 139.283 513.668 140.019 513.93 142.225C513.145 143.697 512.1 145.903 511.577 147.375C511.577 150.317 511.577 152.524 511.577 154.731C511.316 156.202 510.793 156.938 510.531 157.673C510.793 159.144 511.316 159.88 511.577 160.616C511.838 163.558 511.316 165.765 512.1 167.972C512.361 165.765 512.884 163.558 513.145 161.351C513.668 164.294 514.191 166.5 514.714 169.443C514.452 170.179 514.191 170.914 513.93 172.385C514.191 173.121 514.714 174.592 514.975 175.328C514.975 177.535 514.975 179.741 514.975 181.213C514.714 181.948 514.452 182.684 514.191 182.684C509.747 182.684 505.303 182.684 501.382 182.684C500.859 184.155 500.598 184.891 500.075 185.626C498.768 185.626 496.938 185.626 495.37 185.626C495.631 189.304 496.677 190.04 497.199 192.982C496.938 193.718 496.938 194.454 496.677 194.454C493.801 194.454 490.926 194.454 487.789 194.454C487.527 196.66 487.005 198.867 486.482 201.074C484.913 198.867 483.606 197.396 482.299 195.189C480.992 197.396 479.424 198.867 477.855 201.074C477.332 198.132 477.071 195.925 476.81 194.454C476.287 194.454 476.025 194.454 475.764 194.454C474.718 196.66 475.503 198.867 475.241 201.81C474.98 203.281 474.457 204.752 473.934 206.223C473.15 206.223 472.366 206.959 471.32 206.959C471.059 207.695 470.797 207.695 470.797 208.43C470.797 212.108 470.797 216.522 470.797 220.2C470.536 221.671 470.013 222.407 469.752 223.142C470.274 224.613 470.797 226.085 471.32 227.556C471.581 226.82 472.104 225.349 472.366 224.613C473.15 224.613 474.196 224.613 474.98 224.613C475.241 226.085 475.503 227.556 476.025 227.556C476.81 227.556 477.855 228.292 478.378 226.085C477.594 223.142 476.287 224.613 474.98 224.613C475.503 222.407 476.025 219.464 476.548 216.522C476.81 216.522 477.594 215.786 478.117 215.051C478.117 212.844 478.378 210.637 478.378 207.695C479.162 205.488 480.208 206.959 480.992 206.223C481.515 206.959 481.776 208.43 482.299 209.166C483.083 209.166 483.868 209.166 484.652 209.166C484.913 210.637 484.913 211.373 485.175 213.579C483.868 216.522 482.561 219.464 481.776 221.671C481.776 223.878 481.776 225.349 481.776 226.085C482.561 228.292 483.606 227.556 484.39 227.556C485.175 227.556 485.959 227.556 486.482 227.556C487.266 227.556 488.312 227.556 489.096 227.556C489.357 223.142 488.312 225.349 487.266 221.671C487.527 223.142 487.266 220.935 487.005 219.464C487.005 218.729 486.482 218.729 486.22 217.993C486.22 214.315 486.22 210.637 486.22 207.695C485.959 206.959 485.436 205.488 484.913 204.016C485.698 203.281 486.22 203.281 487.005 203.281C487.266 205.488 487.266 206.959 487.266 208.43C488.05 210.637 489.096 212.844 489.88 215.786C490.403 215.786 490.926 216.522 491.71 216.522C491.71 220.2 491.71 223.878 491.71 226.085C492.494 228.292 493.017 229.763 493.278 231.234C494.063 231.234 494.847 231.234 495.631 231.234C496.938 228.292 495.631 223.878 496.415 220.2C496.677 220.2 496.938 219.464 497.461 219.464C497.461 221.671 497.461 224.613 497.461 226.82C497.722 227.556 498.245 229.027 498.507 230.498C497.722 232.705 496.938 234.176 495.892 236.383C496.154 237.854 496.677 239.326 496.938 241.532C497.2 243.004 497.461 245.21 497.722 246.682C498.768 247.417 499.029 247.417 499.552 244.475C499.814 244.475 500.336 243.739 500.336 243.739C500.598 242.268 500.075 241.532 499.552 241.532C499.552 238.59 500.859 237.854 501.121 234.912C501.905 237.119 502.689 239.326 503.473 241.532C504.258 241.532 505.042 241.532 505.826 241.532C505.826 243.004 506.087 245.21 506.087 246.682C502.951 248.153 500.598 251.095 498.768 256.98C497.461 255.509 496.677 254.038 495.892 253.302C494.063 256.98 496.154 262.865 494.585 265.807C494.063 264.336 493.54 262.865 493.017 261.394C493.54 259.187 494.585 258.451 493.801 254.038C492.494 252.567 490.926 254.038 489.096 253.302C488.573 254.773 488.05 256.245 487.527 256.98C487.266 262.865 489.096 263.601 489.357 267.279C489.096 268.014 488.573 269.486 488.312 270.957C486.22 274.635 484.652 266.543 482.038 269.486C482.038 269.486 481.515 270.221 480.731 271.692C480.208 270.221 479.685 269.486 478.901 268.014C477.855 268.014 476.81 268.014 475.764 268.014C475.241 269.486 474.718 270.221 474.457 270.957C472.888 270.957 472.627 265.807 471.059 268.75C471.059 269.486 470.797 270.957 470.797 272.428C471.32 273.899 471.843 275.37 472.627 276.842C474.196 279.048 475.241 274.635 476.81 273.899C477.332 275.37 477.594 276.106 478.117 276.842C478.378 276.106 478.901 274.635 479.162 273.899C480.731 273.164 481.515 279.784 483.868 276.106C483.606 276.106 484.129 275.37 484.652 274.635C485.175 275.37 485.698 276.106 486.482 277.577C487.005 276.842 487.527 275.37 488.312 273.899C488.573 275.37 489.096 276.842 489.619 278.313C489.096 279.048 488.573 279.784 487.789 280.52C488.05 282.726 488.834 281.991 489.357 282.726C489.88 283.462 490.141 284.198 490.403 284.933C490.664 284.198 490.926 283.462 491.449 281.991C491.71 282.726 492.233 283.462 492.756 284.933C494.063 284.933 495.631 284.933 497.984 284.933C497.199 285.669 493.278 288.611 493.017 288.611C493.801 290.083 494.585 290.818 495.37 291.554C494.585 295.232 493.017 291.554 491.971 295.232C493.801 296.703 495.631 295.967 497.461 295.967C499.029 295.967 500.598 295.232 502.689 297.439C500.336 299.645 498.768 298.174 497.199 298.91C496.415 300.381 495.892 301.852 495.108 303.323C497.199 307.001 499.029 303.323 500.859 306.266C500.598 307.737 500.336 308.473 499.814 309.944C500.598 310.68 501.382 312.151 501.905 312.886C501.905 314.358 501.905 315.093 501.905 315.829C501.121 317.3 500.075 318.036 498.768 320.242C498.245 320.242 496.938 320.242 495.892 320.242C495.37 320.978 495.108 322.449 494.585 323.185C490.926 323.185 487.266 323.185 483.606 323.185C483.083 323.921 482.822 325.392 482.299 326.127C474.457 326.127 466.876 326.127 459.034 326.127C458.772 326.863 458.511 327.599 457.988 329.07C454.851 329.805 451.453 329.07 447.793 329.07C447.532 329.805 447.27 330.541 446.748 332.012C439.167 332.012 431.324 332.012 423.482 332.012C422.959 333.483 422.698 334.219 422.437 334.955C409.105 334.955 395.773 334.955 382.702 334.955C382.18 336.426 381.918 337.161 381.657 337.897C341.661 337.897 301.143 337.897 261.147 337.897C260.625 339.368 260.363 340.104 260.102 340.839C248.338 340.839 236.575 340.839 224.812 340.839C224.55 340.104 224.027 339.368 223.766 337.897C223.243 338.633 222.72 340.104 222.197 341.575C221.413 340.104 220.89 339.368 220.368 337.897C185.077 337.897 149.787 337.897 114.236 337.897C113.974 337.161 113.713 336.426 113.19 334.955C107.439 334.955 101.427 334.955 95.4142 334.955C94.8914 333.483 94.63 332.748 94.3686 332.012C92.2773 332.012 89.9246 332.012 87.8334 332.012C87.3105 330.541 87.0491 329.805 86.7877 329.07C84.1736 329.07 81.821 329.07 78.9455 329.07C78.1612 326.127 77.1156 322.449 76.07 319.507C74.2401 319.507 72.6716 319.507 71.1032 319.507C69.7962 315.829 70.8418 314.358 71.626 312.151C71.626 309.944 71.626 308.473 71.626 306.266C72.9331 303.323 73.7173 297.439 75.8085 298.174C75.5471 295.232 74.7629 293.025 74.2401 292.289C73.1945 291.554 72.6716 290.818 72.6716 287.876C72.6716 285.669 71.626 284.198 71.1032 282.726C69.0119 281.991 69.7961 286.405 68.7505 288.611C68.4891 287.876 67.9663 287.14 67.4435 285.669C66.3978 285.669 65.3522 285.669 64.3066 285.669C63.7837 286.405 63.5223 289.347 62.4767 288.611C62.4767 287.876 62.2153 286.405 62.2153 286.405C61.4311 285.669 61.4311 287.14 61.4311 288.611C60.6468 288.611 60.3854 289.347 60.3854 290.818C60.3854 293.025 60.3854 294.496 61.4311 294.496C61.4311 295.232 61.6925 296.703 61.6925 296.703C63.2609 296.703 64.3066 302.588 66.6592 299.645C66.6592 299.645 67.4435 297.439 67.9663 295.967C67.4435 294.496 67.1821 293.025 66.6592 291.554C67.4435 290.818 67.9663 290.818 68.2277 290.818C69.5347 293.761 68.2277 297.439 68.7505 301.117C69.0119 302.588 69.5347 304.059 69.7962 306.266C68.7505 306.266 67.7049 306.266 67.1821 306.266C65.0908 311.415 68.2277 312.886 67.4435 317.3C66.1364 319.507 66.1364 319.507 64.8294 316.564C64.3066 317.3 63.7837 318.036 62.9995 319.507C62.4767 318.771 61.6925 317.3 60.6468 315.829C60.124 316.564 59.6012 318.036 58.817 318.771C58.5556 318.036 58.2942 316.564 58.2942 315.829C58.5556 312.886 59.3398 310.68 60.3854 309.944C60.6468 312.151 60.3854 314.358 61.4311 312.151C61.1697 311.415 60.9082 310.68 60.3854 309.944C60.9082 305.53 59.3398 302.588 58.817 298.174C58.5556 296.703 58.2942 294.496 57.7713 292.289C57.5099 292.289 56.7257 291.554 56.2029 290.818C55.6801 289.347 55.1573 288.611 54.373 288.611C53.3274 285.669 52.2818 282.726 51.2361 279.784C50.9747 280.52 50.4519 281.255 50.1905 281.991C49.1449 282.726 47.8378 283.462 46.7922 279.784C45.7465 279.784 44.7009 279.784 43.3939 279.784C43.1325 280.52 42.6096 281.255 42.0868 282.726C41.564 281.255 41.3026 279.784 40.5184 277.577C40.5184 276.842 40.5184 274.635 40.5184 271.692C39.7341 270.221 38.9499 268.75 38.1657 267.279C38.1657 264.336 38.1657 262.129 38.1657 259.187C37.12 256.98 35.813 254.038 34.7674 251.095C35.0288 248.889 35.2902 247.417 35.2902 245.946C35.813 247.417 36.0744 248.153 36.5972 248.889C36.8586 248.153 37.3815 246.682 37.6429 245.946C38.1657 247.417 38.6885 248.889 39.2113 250.36C39.2113 251.095 39.2113 252.567 39.2113 253.302C39.9955 255.509 41.0412 258.451 41.8254 260.658C42.3482 259.923 42.6096 256.98 43.3939 257.716C43.3939 260.658 44.4395 261.394 44.9623 263.601C45.2237 264.336 46.0079 263.601 46.2694 263.601C47.0536 259.187 46.2694 256.245 45.7465 252.567C46.5308 250.36 47.5764 251.831 48.3606 251.831C49.1449 248.153 49.4063 243.004 51.7589 241.532C50.4519 240.061 49.9291 240.061 49.1449 239.326C48.8834 237.854 48.622 235.648 48.3606 234.176C48.0992 234.912 47.5764 235.648 47.5764 235.648C47.5764 237.854 47.5764 239.326 47.5764 241.532C46.7922 244.475 45.7465 242.268 44.9623 243.004C44.7009 242.268 44.1781 240.797 43.6553 240.061C42.0868 240.061 40.7798 240.061 39.2113 240.061C38.6885 239.326 38.4271 237.854 38.1657 237.119C37.6429 237.854 37.3815 239.326 37.12 240.061C36.3358 237.854 35.813 234.912 35.0288 234.912C38.1657 239.326 37.6429 236.383 36.5972 236.383C36.0744 236.383 35.5516 236.383 34.7674 236.383C34.506 237.119 33.9831 238.59 33.4603 239.326C33.1989 239.326 32.6761 239.326 32.4147 239.326C32.1533 239.326 31.6305 239.326 31.3691 239.326C31.1076 239.326 31.1076 240.061 30.8462 240.061C29.8006 241.532 28.755 243.004 27.7093 245.21C27.4479 244.475 27.1865 243.739 26.9251 243.004C25.8795 243.004 24.8338 243.004 24.0496 243.004C22.7426 240.797 21.6969 239.326 20.6513 237.854C21.6969 234.912 23.2654 232.705 23.7882 229.027C24.311 225.349 24.8338 223.142 25.8795 220.935C27.1865 220.2 27.4479 222.407 27.4479 225.349C27.9707 226.82 28.4936 228.292 29.0164 229.763C30.062 229.763 31.3691 229.763 32.6761 229.763C32.9375 227.556 33.1989 226.085 33.4603 223.878C33.9831 225.349 34.2446 226.085 34.7674 226.82C35.813 226.82 36.8586 226.82 38.1657 226.82C38.6885 225.349 39.2113 223.878 39.7341 222.407C38.9499 221.671 38.4271 220.2 37.6429 219.464C37.9043 217.257 38.9499 217.257 38.6885 214.315C40.5184 215.051 41.564 211.373 42.871 210.637C42.6096 208.43 42.0868 205.488 41.8254 203.281C41.8254 202.545 41.3026 202.545 41.0412 202.545C40.7798 200.338 41.0412 198.132 39.9955 200.338C40.257 201.074 40.5184 201.81 41.0412 202.545C41.0412 203.281 41.0412 204.752 41.0412 206.959C40.257 208.43 39.4727 210.637 38.9499 212.844C38.9499 212.844 38.9499 213.579 38.9499 214.315C38.1657 214.315 37.12 214.315 36.0744 214.315C35.813 215.786 35.5516 217.993 35.5516 219.464C34.506 220.935 33.4603 220.935 32.4147 219.464C32.6761 218.729 32.9375 217.257 33.4603 216.522C33.1989 214.315 32.1533 213.579 32.4147 210.637C32.6761 209.901 33.1989 208.43 33.4603 207.695C33.4603 205.488 33.4603 202.545 33.4603 200.338C33.7217 200.338 34.2446 200.338 34.506 199.603C34.7674 201.81 34.506 204.016 35.5516 201.81C35.2902 201.074 35.0288 200.338 34.506 199.603C35.0288 198.132 35.2902 196.66 35.5516 195.189C34.2446 191.511 32.9375 188.569 31.6305 184.155C30.8462 187.833 31.3691 192.247 30.8462 195.189C30.5848 196.66 30.062 198.132 30.062 200.338C30.062 201.81 30.3234 203.281 31.1076 202.545C30.8462 205.488 31.3691 208.43 30.5848 211.373C30.3234 210.637 29.8006 209.901 29.2778 208.43C29.0164 209.166 28.4936 209.901 28.2321 211.373C27.9707 209.166 27.4479 207.694 27.1865 205.488C26.4023 206.959 25.8795 207.694 25.3567 209.166C25.0952 206.959 25.3567 204.752 24.311 206.959C24.5724 207.695 24.8338 208.43 25.3567 209.166ZM467.399 223.878C468.183 223.142 469.229 223.142 468.445 220.935C468.183 221.671 467.922 222.407 468.183 223.142C467.399 223.878 466.353 223.878 467.137 226.085C467.137 226.085 467.399 225.349 467.399 223.878ZM53.8502 156.202C54.1116 158.409 54.1116 160.616 54.8958 159.144C54.6344 158.409 54.373 157.673 54.1116 158.409C53.8502 156.202 53.8502 153.995 53.066 155.466C53.3274 155.466 53.5888 156.202 53.8502 156.202ZM474.195 101.767C474.98 101.031 476.025 103.238 476.287 100.296C474.98 98.8246 474.98 98.8246 474.195 101.767C474.457 102.503 474.195 101.767 474.195 101.767C473.673 102.503 473.411 102.503 473.15 103.238L473.411 103.974C473.934 103.974 474.195 103.238 474.195 101.767ZM46.5308 160.616C46.2694 158.409 46.2694 156.202 45.4851 157.673C45.7465 158.409 46.0079 159.144 46.5308 159.144C46.5308 161.351 46.5308 164.294 46.5308 166.5C47.5764 167.972 48.622 169.443 49.6677 170.914C49.6677 167.972 49.6677 165.765 49.6677 162.822C49.1449 161.351 48.622 159.88 48.0992 158.409C47.315 159.88 46.7922 159.88 46.5308 160.616ZM55.1573 266.543C56.9871 265.807 55.6801 271.692 56.9871 272.428C57.7713 271.692 58.817 273.164 59.6012 270.957C59.6012 270.221 59.6012 268.75 59.8626 268.014C59.0784 263.601 57.2485 262.865 55.6801 259.923C55.1573 262.865 55.1573 264.336 55.1573 266.543C54.1116 268.014 54.1116 268.014 54.6344 272.428C55.6801 270.957 54.8958 268.75 55.1573 266.543ZM66.9207 148.11C67.9663 146.639 69.0119 144.432 69.7962 145.168C71.1032 145.168 71.626 142.961 72.4102 142.225C72.6716 142.961 72.9331 143.697 73.1945 144.432C77.377 144.432 81.5595 144.432 85.7421 144.432C86.2649 142.961 86.7877 141.49 87.3105 140.019C87.0491 138.547 87.0491 137.076 86.7877 136.341C86.2649 136.341 86.0035 136.341 85.4807 136.341C85.2193 137.076 84.6964 138.547 84.1736 139.283C78.6841 139.283 73.1945 139.283 67.7049 139.283C67.1821 141.49 66.1364 142.225 65.875 145.168C66.3978 145.903 66.6592 146.639 66.9207 148.11ZM58.0328 151.053C59.3398 145.168 61.1697 148.846 62.7381 146.639C63.5223 145.168 64.568 144.432 65.3522 142.961C65.0908 141.49 65.0908 140.019 64.8294 138.547C64.0452 140.019 63.2609 140.754 62.7381 142.225C62.2153 140.754 61.6925 140.019 61.4311 138.547C60.3854 138.547 59.3398 138.547 58.2942 138.547C57.7713 139.283 57.5099 140.754 57.2485 141.49C56.7257 140.754 56.4643 140.019 56.2029 139.283C55.4187 140.754 54.8958 141.49 54.373 142.225C53.8502 140.754 53.3274 140.019 53.066 139.283C52.5432 140.019 52.0204 141.49 51.4975 141.49C50.7133 142.225 50.1905 142.225 49.4063 142.225C49.4063 142.225 49.4063 142.961 49.1449 142.961C49.6677 144.432 50.1905 145.903 50.7133 147.375C51.4975 147.375 52.2818 147.375 52.8046 147.375C53.3274 148.11 53.5888 149.581 53.8502 150.317C54.373 149.581 54.6344 148.11 55.1573 147.375C55.9415 148.11 56.9871 146.639 58.0328 151.053ZM68.2277 248.889C67.1821 250.36 66.6592 251.095 65.875 251.831C64.8294 253.302 64.0452 249.624 62.9995 248.889C62.9995 250.36 62.7381 251.831 62.7381 252.567C63.5223 254.773 64.3066 256.245 64.8294 258.451C65.0908 259.923 65.3522 262.129 65.6136 264.336C66.6592 264.336 67.4435 264.336 68.2277 264.336C68.4891 266.543 68.7505 268.014 68.7505 269.486C69.5347 268.014 70.319 267.279 70.8418 265.807C70.8418 262.129 70.8418 260.658 70.5804 259.187C69.5347 255.509 68.2277 253.302 68.2277 248.889ZM481.515 129.72C480.731 130.456 479.685 128.984 478.639 131.191C479.162 133.398 478.117 136.341 479.162 138.547C480.208 138.547 481.254 138.547 482.299 138.547C482.822 137.812 483.083 136.341 483.345 135.605C483.868 136.341 484.129 137.812 484.652 138.547C485.436 138.547 486.22 138.547 486.743 137.812C487.005 137.812 487.005 137.076 487.266 136.341C485.959 133.398 485.436 128.984 483.606 128.249C483.083 129.72 482.822 130.456 482.299 131.191C482.299 131.191 481.776 130.456 481.515 129.72ZM73.4559 260.658C74.7629 259.923 76.07 261.394 77.1156 259.923C76.8542 258.451 76.3314 256.98 76.07 255.509C75.8085 253.302 76.3314 250.36 75.5471 248.889C74.2401 249.624 73.1945 248.153 71.8874 249.624C71.8874 251.831 71.8874 254.038 71.8874 256.245C72.4102 257.716 72.9331 259.187 73.4559 260.658ZM470.797 210.637C470.797 206.223 469.229 210.637 468.967 207.695C468.706 206.223 468.445 204.016 468.445 202.545C467.399 203.281 466.615 201.81 465.569 204.016C465.569 206.223 465.569 208.43 465.83 210.637C465.83 211.373 466.092 211.373 466.092 211.373C467.66 211.373 468.967 211.373 470.536 211.373C470.536 211.373 470.536 211.373 470.797 210.637ZM504.258 149.582C504.519 151.053 503.735 153.26 503.996 153.26C505.826 150.317 506.872 148.11 507.917 146.639C507.656 143.697 508.179 140.754 507.133 138.547C506.349 139.283 505.303 137.812 504.519 140.019C503.996 142.961 504.78 144.432 505.565 146.639C504.78 147.375 504.519 148.11 504.258 149.582ZM471.581 81.17C472.104 79.6988 472.888 78.2276 473.15 76.0207C472.366 75.2851 472.104 71.6071 471.059 72.3427C468.445 77.492 468.445 78.9632 469.49 81.17C470.013 81.17 470.797 81.17 471.581 81.17ZM490.403 138.547C491.187 138.547 491.971 138.547 492.756 138.547C493.017 137.812 493.278 136.341 493.801 135.605C494.324 134.869 495.108 136.341 495.37 132.663C493.54 132.663 491.449 132.663 489.619 132.663C489.357 132.663 489.357 134.134 489.096 134.134C489.357 135.605 489.88 137.076 490.403 138.547ZM459.295 211.373C460.079 210.637 461.125 212.108 461.909 210.637C461.909 207.695 460.864 209.166 460.341 208.43C459.295 205.488 458.25 202.545 457.204 199.603H456.943C456.681 204.016 456.681 204.016 459.295 211.373ZM498.768 137.076C498.768 135.605 498.507 134.134 498.245 130.456C497.461 133.398 496.938 134.869 496.415 136.341C496.677 137.076 500.598 143.697 500.859 143.697C501.121 143.697 501.382 142.961 501.905 142.225C501.382 139.283 499.552 139.283 498.768 137.076ZM51.4975 223.878C48.622 223.878 48.622 223.878 47.315 226.085C48.0992 226.085 48.622 226.82 48.8834 226.82C50.1905 226.82 51.4975 227.556 52.5432 226.085C52.8046 223.142 53.066 220.2 52.0204 217.257C52.0204 219.464 52.0204 220.935 51.4975 223.878ZM40.7798 222.407C41.3026 223.878 41.8254 226.085 42.871 226.82C42.871 223.142 42.871 220.2 42.871 216.522C42.871 215.786 42.3482 215.786 42.0868 215.051C41.8254 217.257 40.7798 217.993 40.7798 222.407ZM475.503 201.074C474.98 199.603 474.457 198.132 473.934 196.66C472.888 196.66 471.843 195.189 471.059 198.132C471.843 198.867 472.366 198.867 472.888 199.603C473.411 200.338 473.934 202.545 474.718 201.81C474.718 201.81 475.241 201.81 475.503 201.074ZM479.947 81.9056C480.469 83.3768 480.731 85.5836 481.776 86.3193C482.299 84.848 482.822 83.3768 483.083 82.6412C482.561 81.17 482.038 79.6988 481.515 78.2276C480.992 78.9632 480.469 80.4344 479.947 81.9056ZM59.8626 254.038C59.6012 251.095 59.6012 250.36 59.3398 248.153C58.5556 248.889 58.0328 248.889 57.2485 248.889C57.5099 251.095 57.5099 252.567 57.5099 254.038C58.2942 254.038 58.817 254.038 59.8626 254.038ZM163.119 12.7585C165.733 14.2297 165.733 14.2297 166.517 12.0229C165.733 10.5517 164.688 10.5517 163.119 12.7585ZM486.743 99.5602C487.266 97.3534 488.312 95.8821 488.312 93.6753C487.789 92.2041 487.005 92.2041 486.22 94.4109C486.482 95.8821 486.743 97.3534 486.743 99.5602ZM469.752 195.925C467.399 192.982 467.399 193.718 466.615 195.925C467.137 195.925 467.66 196.66 468.183 196.66C468.706 196.66 469.229 195.925 469.752 195.925ZM477.594 265.072C476.548 262.865 475.241 262.865 474.195 265.072C475.503 267.279 476.548 267.279 477.594 265.072ZM66.6592 279.048C67.4435 276.842 67.4435 274.635 66.9207 272.428C66.3978 272.428 65.875 273.164 65.6136 273.164C65.875 274.635 66.3978 276.842 66.6592 279.048ZM454.59 74.5495C454.851 74.5495 455.113 74.5495 455.374 74.5495C455.374 73.0783 455.635 71.6071 455.635 70.1359L455.374 69.4003C455.113 69.4003 454.59 70.1359 454.59 70.1359C454.328 71.6071 454.59 73.0783 454.59 74.5495ZM460.079 73.0783C459.034 70.8715 458.25 70.1359 457.988 73.8139C458.511 75.2851 459.034 75.2851 460.079 73.0783ZM489.88 87.7905C489.88 88.5261 489.88 89.2617 489.88 89.9973C490.403 89.9973 490.926 90.7329 491.449 90.7329L491.71 89.9973C491.71 89.2617 491.448 87.7905 491.187 87.7905C490.926 87.0549 490.403 87.0549 489.88 87.7905ZM493.017 97.3534C492.233 95.1465 491.449 95.1465 490.926 97.3534C491.71 99.5602 492.233 99.5602 493.017 97.3534ZM496.677 145.168C496.677 145.903 496.677 146.639 496.677 147.375C497.199 147.375 497.722 148.11 498.245 148.11L498.507 147.375C498.507 146.639 498.245 145.168 497.984 145.168C497.461 144.432 496.938 145.168 496.677 145.168ZM66.9207 315.093C67.7049 312.151 67.9663 310.68 66.6592 309.208C66.1364 311.415 66.1364 312.886 66.9207 315.093ZM82.3438 254.038C81.5595 256.245 81.5595 258.451 82.3438 259.923C83.128 258.451 83.128 256.245 82.3438 254.038ZM467.66 188.569C468.445 190.776 469.229 190.776 469.752 188.569C469.229 186.362 468.445 186.362 467.66 188.569ZM494.324 184.891C494.324 185.626 494.324 186.362 494.324 187.097C494.847 187.097 495.37 187.833 495.892 187.833L496.154 187.097C496.154 186.362 495.892 184.891 495.631 184.891C495.37 184.155 494.847 184.891 494.324 184.891ZM451.192 70.8715C451.453 71.6071 451.453 71.6071 451.714 71.6071C451.714 70.8715 451.976 70.1359 451.976 69.4003L451.714 68.6647C451.453 69.4003 451.453 70.1359 451.192 70.8715ZM495.892 69.4003C495.631 69.4003 495.37 70.1359 495.108 70.1359L495.37 70.8715C495.631 70.8715 495.892 70.1359 496.154 70.1359C496.415 70.1359 496.154 69.4003 495.892 69.4003ZM467.399 77.492C467.66 76.7563 467.66 76.7563 467.922 76.7563C467.66 76.7563 467.399 76.0207 467.137 76.0207L466.876 76.7563C466.876 76.7563 467.137 76.7563 467.399 77.492ZM258.533 79.6988C258.533 78.9632 258.272 78.2276 258.01 77.492L257.749 78.2276C257.749 78.9632 258.01 79.6988 258.01 80.4344C258.272 80.4344 258.272 80.4344 258.533 79.6988ZM478.117 80.4344C478.378 80.4344 478.639 79.6988 478.901 79.6988L478.639 78.9632C478.378 78.9632 478.117 79.6988 477.855 79.6988C477.855 79.6988 477.855 79.6988 478.117 80.4344ZM478.639 101.031C478.639 100.296 478.378 99.5602 478.117 98.8246L477.855 99.5602C477.855 100.296 478.117 101.031 478.117 101.767C478.378 101.767 478.378 101.767 478.639 101.031ZM142.468 119.422C142.468 118.686 142.206 117.95 141.945 117.215L141.684 117.95C141.684 118.686 141.945 119.422 141.945 120.157C142.206 120.157 142.206 119.422 142.468 119.422ZM121.032 126.778C120.771 126.778 120.509 127.513 120.248 127.513L120.509 128.249C120.771 128.249 121.032 127.513 121.294 127.513C121.294 127.513 121.294 127.513 121.032 126.778ZM96.4598 138.547C96.7213 138.547 96.9827 137.812 97.2441 137.812L96.9827 137.076C96.7212 137.076 96.4598 137.812 96.1984 137.812C96.1984 137.812 96.4598 137.812 96.4598 138.547ZM39.4727 159.144C39.4727 158.409 39.2113 157.673 38.9499 156.938L38.6885 157.673C38.6885 158.409 38.9499 159.144 38.9499 159.88C39.2113 159.88 39.4727 159.144 39.4727 159.144ZM72.4102 159.88L72.1488 160.616C72.1488 161.351 72.4102 162.087 72.4102 162.822L72.6716 162.087C72.6716 161.351 72.4102 160.616 72.4102 159.88ZM56.7257 163.558C56.4643 164.294 56.4643 164.294 56.2029 164.294C56.4643 164.294 56.7257 165.029 56.9871 165.029L57.2485 164.294C57.2485 164.294 56.9871 163.558 56.7257 163.558ZM41.0412 173.857C41.3026 174.592 41.3026 174.592 41.564 174.592C41.564 173.857 41.8254 173.121 41.8254 172.385L41.564 171.65C41.3026 173.121 41.0412 173.121 41.0412 173.857ZM36.5972 180.477C36.8586 181.213 36.8586 181.213 37.12 181.213C37.12 180.477 37.3815 179.741 37.3815 179.006L37.12 178.27C36.8586 179.006 36.5972 179.741 36.5972 180.477ZM465.308 186.362C465.308 185.626 465.046 184.891 464.785 184.155L464.523 184.891C464.523 185.626 464.785 186.362 464.785 187.097C465.046 187.097 465.046 186.362 465.308 186.362ZM462.171 204.016C462.171 204.752 462.432 205.488 462.694 206.223L462.955 205.488C462.955 204.752 462.694 204.016 462.694 203.281C462.694 203.281 462.432 203.281 462.171 204.016ZM54.373 218.729C54.373 219.464 54.6344 220.2 54.8958 220.935L55.1573 220.2C55.1573 219.464 54.8958 218.729 54.8958 217.993C54.6344 217.993 54.373 218.729 54.373 218.729ZM480.992 223.142C481.254 223.878 481.254 223.878 481.515 223.878C481.515 223.142 481.776 222.407 481.776 221.671L481.515 220.935C481.254 221.671 481.254 222.407 480.992 223.142ZM80.5139 249.624C80.2525 248.889 80.2525 248.889 79.9911 248.889C79.9911 249.624 79.7297 250.36 79.7297 251.095L79.9911 251.831C80.2525 250.36 80.2525 249.624 80.5139 249.624ZM61.4311 254.038C61.6925 253.302 61.6925 253.302 61.9539 253.302C61.6925 253.302 61.4311 252.567 61.1697 252.567L60.9082 253.302C60.9082 253.302 61.1697 253.302 61.4311 254.038ZM484.129 255.509C483.868 254.773 483.868 254.773 483.606 254.773C483.606 255.509 483.345 256.245 483.345 256.98L483.606 257.716C483.868 256.98 483.868 256.245 484.129 255.509ZM59.6012 259.187L59.3398 258.451C59.0784 258.451 58.817 259.187 58.5556 259.187L58.817 259.923C59.0784 259.923 59.3398 259.187 59.6012 259.187ZM74.2401 277.577C74.5015 278.313 74.5015 278.313 74.7629 278.313C74.7629 277.577 75.0243 276.842 75.0243 276.106L74.7629 275.37C74.5015 276.106 74.2401 276.842 74.2401 277.577Z" fill="#0077FF" fill-opacity="0.29"/>
<path d="M522.817 95.8821C522.817 94.4109 522.817 92.9397 522.817 91.4685C523.34 90.7329 523.602 90.7329 524.386 89.9973C525.17 92.9397 525.954 95.1465 526.739 98.8246C526.739 98.8246 526.477 99.5602 526.216 101.031C526.216 103.238 525.954 105.445 525.954 108.387C525.432 108.387 524.647 109.123 524.386 108.387C523.079 105.445 522.033 102.503 520.726 98.8246C519.942 100.296 519.419 101.031 518.635 102.503C518.112 100.296 517.589 98.089 517.066 96.6178C516.282 96.6178 515.759 96.6178 515.237 96.6178C515.237 95.1465 514.975 93.6753 514.975 91.4685C515.759 90.7329 516.544 89.9973 517.066 89.2617C516.544 87.0549 516.282 85.5836 515.759 83.3768C516.282 82.6412 516.805 81.9056 517.589 80.4344C518.112 82.6412 518.374 84.848 518.896 87.0549C518.896 87.0549 518.635 87.7905 518.112 89.2617C518.896 90.7329 519.681 91.4685 520.465 92.2041C521.51 92.9397 522.033 95.8821 522.817 95.8821C523.079 97.3534 522.817 100.296 523.863 98.089C523.602 97.3534 523.34 96.6178 522.817 95.8821Z" fill="#0077FF" fill-opacity="0.29"/>
<path d="M84.435 17.1721C83.9122 17.9077 83.6508 19.379 83.3894 20.1146C83.1279 19.379 82.8665 18.6434 82.3437 17.1721C80.2525 17.1721 77.8998 17.1721 75.5471 17.1721C75.2857 17.9077 75.0243 18.6434 74.7629 19.379C74.2401 18.6434 73.7172 17.9077 72.933 16.4365C72.4102 17.1721 71.8874 18.6434 71.1031 20.1146C70.5803 20.1146 69.7961 20.1146 69.0119 20.1146C68.2276 17.9077 68.2276 16.4365 69.0119 14.2297C69.2733 14.9653 69.7961 16.4365 70.0575 17.1721C70.3189 15.7009 70.5803 14.9653 71.1031 14.2297C78.1612 14.2297 85.2192 14.2297 92.0158 14.2297C92.8001 12.7585 93.0615 12.0229 93.5843 10.5517C94.3685 12.0229 95.1528 12.7585 95.937 14.2297C96.4598 13.4941 96.9826 12.0229 97.5054 11.2873C98.2897 12.0229 98.0282 14.2297 97.7668 15.7009C97.5054 16.4365 97.5054 17.1721 97.244 17.1721C93.3229 17.1721 88.8789 17.1721 84.435 17.1721Z" fill="#0077FF" fill-opacity="0.29"/>
<path d="M57.51 20.1146C57.51 20.8502 57.2486 21.5858 56.9871 23.057C52.5432 23.057 48.0992 23.057 43.6553 23.057C43.3939 23.7926 43.1325 24.5282 42.6097 25.9994C41.3026 27.4707 39.9956 25.9994 38.4271 26.735C38.4271 25.9994 38.6885 24.5282 38.9499 24.5282C39.7342 23.7926 40.5184 23.057 41.8254 20.8502C42.8711 20.8502 44.7009 20.8502 46.5308 20.8502C47.0536 19.379 47.8378 18.6434 48.3607 17.1721C49.1449 18.6434 49.9291 19.379 50.7133 20.8502C51.2362 20.1146 51.759 18.6434 52.2818 17.9078C52.5432 18.6434 53.066 19.379 53.3274 20.8502C54.8959 20.1146 56.2029 20.1146 57.51 20.1146Z" fill="#0077FF" fill-opacity="0.29"/>
<path d="M514.452 85.5836C513.407 87.7905 512.623 89.2617 511.577 91.4685C512.1 94.4109 512.623 95.8821 513.145 98.8246C513.145 100.296 513.145 102.503 513.145 103.974C512.1 106.181 511.315 109.123 510.531 111.33C510.008 109.123 508.701 108.387 508.963 103.974C509.486 103.238 510.27 101.767 511.054 101.031C511.577 97.3534 510.27 95.8821 509.747 94.4109C511.315 87.7905 512.1 84.848 513.407 84.1124C513.407 84.1124 513.668 84.848 514.452 85.5836Z" fill="#0077FF" fill-opacity="0.29"/>
<path d="M405.706 10.5517C406.229 10.5517 406.752 10.5517 407.275 10.5517C407.798 9.81608 408.059 8.34486 408.32 7.60925C408.582 8.34486 408.843 9.08047 409.366 10.5517C413.026 10.5517 416.685 10.5517 420.345 10.5517C421.129 12.7585 421.129 14.2297 420.607 16.4365C419.822 16.4365 419.038 16.4365 417.993 16.4365C417.731 15.7009 417.47 14.9653 416.947 13.4941C413.287 13.4941 409.627 13.4941 405.706 13.4941C405.968 12.7585 405.968 12.0229 405.706 10.5517Z" fill="#0077FF" fill-opacity="0.29"/>
<path d="M518.635 151.053C519.942 151.053 521.249 151.053 522.556 151.053C523.079 152.524 523.34 153.995 524.125 156.202C523.34 157.673 522.556 159.144 522.295 159.88C521.772 163.558 522.295 165.765 521.249 166.501C520.988 165.029 520.726 162.822 520.465 161.351C519.681 161.351 518.896 160.616 517.851 160.616C517.328 159.144 517.328 159.144 518.635 156.202C518.635 153.995 518.635 152.524 518.635 151.053Z" fill="#0077FF" fill-opacity="0.29"/>
<path d="M428.972 15.7009C428.972 14.2297 429.233 12.0229 429.233 9.81607C429.756 11.2873 430.279 12.7585 430.54 13.4941C430.802 12.7585 431.324 11.2873 431.586 10.5517C431.847 11.2873 432.109 12.0229 432.631 13.4941C434.461 14.9653 436.553 12.7585 438.905 14.9653C437.075 17.1721 436.291 17.9078 428.972 15.7009Z" fill="#0077FF" fill-opacity="0.29"/>
<path d="M398.125 7.60925C400.478 7.60925 402.831 7.60925 404.922 7.60925C405.445 7.60925 405.968 9.08047 405.706 10.5517C405.183 10.5517 404.661 10.5517 404.138 10.5517C403.876 11.2873 403.354 12.7585 403.092 13.4941C402.831 12.7585 402.308 12.0229 401.785 10.5517C400.74 10.5517 399.694 10.5517 398.387 10.5517C398.125 9.08047 398.125 8.34486 398.125 7.60925Z" fill="#0077FF" fill-opacity="0.29"/>
<path d="M15.946 162.087C14.6389 162.822 14.3775 162.822 13.5933 163.558C13.3319 165.029 13.0705 167.236 12.5477 169.443C12.0248 169.443 11.7634 169.443 11.502 169.443C10.4564 166.5 12.0248 166.5 12.0248 164.294C12.0248 162.087 12.0248 160.616 12.0248 159.144C12.2862 158.409 12.5477 158.409 12.5477 157.673C13.0705 159.88 14.3775 159.88 15.946 162.087Z" fill="#0077FF" fill-opacity="0.29"/>
<path d="M67.4434 17.9077C66.9206 19.3789 66.6592 19.3789 66.6592 19.3789C64.8293 19.3789 62.9995 19.3789 61.1696 19.3789L60.9082 18.6433C62.2152 16.4365 62.2152 16.4365 67.4434 17.9077Z" fill="#0077FF" fill-opacity="0.29"/>
<path d="M27.4479 28.9419C26.4023 31.8843 24.5724 34.8267 23.2654 34.0911C23.2654 31.1487 24.311 30.4131 24.5724 28.9419C25.6181 28.9419 26.6637 28.9419 27.4479 28.9419Z" fill="#0077FF" fill-opacity="0.29"/>
<path d="M36.3358 117.215C36.3358 120.157 36.3358 121.628 36.3358 123.1C35.813 123.1 35.2901 123.835 34.5059 123.835C34.5059 121.628 34.2445 120.157 34.2445 117.95C34.7673 117.95 35.2901 117.215 36.3358 117.215Z" fill="#0077FF" fill-opacity="0.29"/>
<path d="M486.482 40.7116C486.482 43.654 486.482 45.1252 486.482 46.5964C485.959 46.5964 485.436 47.3321 484.652 47.3321C484.652 45.1252 484.39 43.654 484.39 41.4472C484.913 41.4472 485.436 41.4472 486.482 40.7116Z" fill="#0077FF" fill-opacity="0.29"/>
<path d="M27.4479 28.2062C28.7549 24.5282 30.3234 25.9994 31.8918 26.735C30.5848 30.4131 29.0163 28.2062 27.4479 28.2062Z" fill="#0077FF" fill-opacity="0.29"/>
<path d="M19.0828 157.673C20.1284 157.673 19.6056 160.616 19.867 162.087C20.1284 163.558 20.6512 164.294 21.4355 165.765C20.3898 166.5 19.6056 166.5 19.0828 166.5C18.56 162.822 18.56 159.88 19.0828 157.673Z" fill="#0077FF" fill-opacity="0.29"/>
<path d="M511.577 70.8715C512.884 71.6071 513.407 71.6071 514.191 72.3427C513.407 74.5495 512.884 76.7564 511.838 76.7564C512.1 76.0208 511.838 74.5495 511.577 70.8715Z" fill="#0077FF" fill-opacity="0.29"/>
<path d="M500.859 87.0549C500.859 88.5261 500.859 90.7329 500.598 92.2041C499.291 92.9397 499.291 89.2617 498.506 89.2617C499.029 85.5837 500.075 87.7905 500.859 87.0549Z" fill="#0077FF" fill-opacity="0.29"/>
<path d="M500.859 108.388C501.121 105.445 501.121 103.974 501.121 101.767C501.643 103.238 502.166 103.974 502.428 105.445C502.689 106.181 502.689 106.916 502.95 107.652C502.689 107.652 502.428 108.388 502.166 108.388C501.905 108.388 501.643 108.388 500.859 108.388Z" fill="#0077FF" fill-opacity="0.29"/>
<path d="M6.53528 175.328C6.53528 173.857 6.53528 172.385 6.53528 170.914C7.0581 167.972 7.84232 169.443 8.88796 168.707C8.10373 172.385 7.58091 174.592 6.53528 175.328Z" fill="#0077FF" fill-opacity="0.29"/>
<path d="M59.6012 318.036C59.0783 318.036 58.5555 318.036 58.0327 318.036C56.9871 316.564 57.2485 314.358 57.7713 312.151C58.5555 313.622 59.3398 315.093 59.6012 318.036Z" fill="#0077FF" fill-opacity="0.29"/>
<path d="M423.221 12.0229C424.005 9.81606 424.789 9.81606 425.312 11.2873C425.051 14.9653 424.266 14.2297 423.221 12.0229Z" fill="#0077FF" fill-opacity="0.29"/>
<path d="M57.2485 20.1146C58.0328 16.4365 58.0328 16.4365 59.3398 17.9077C59.0784 21.5858 58.0328 19.3789 57.2485 20.1146Z" fill="#0077FF" fill-opacity="0.29"/>
<path d="M38.6884 25.9994C37.9042 28.9419 37.9042 28.9419 36.5972 27.4707C36.8586 24.5282 37.9042 26.735 38.6884 25.9994Z" fill="#0077FF" fill-opacity="0.29"/>
<path d="M491.71 49.5389C491.187 49.5389 490.664 50.2745 490.141 50.2745C489.88 50.2745 489.88 48.8033 489.619 48.0677L489.88 47.3321C490.403 47.3321 490.926 47.3321 491.448 48.0677C491.71 48.8033 491.71 48.8033 491.71 49.5389Z" fill="#0077FF" fill-opacity="0.29"/>
<path d="M505.303 101.031C506.087 98.8246 506.872 99.5602 507.394 100.296C506.872 103.238 506.087 102.503 505.303 101.031Z" fill="#0077FF" fill-opacity="0.29"/>
<path d="M33.7217 129.72C34.5059 131.927 34.5059 134.134 33.7217 135.605C32.9375 133.398 32.9375 131.191 33.7217 129.72Z" fill="#0077FF" fill-opacity="0.29"/>
<path d="M30.3234 135.605C31.1077 137.812 31.1077 140.019 30.5849 141.49C29.2778 140.019 29.5392 137.812 30.3234 135.605Z" fill="#0077FF" fill-opacity="0.29"/>
<path d="M59.6012 307.737C58.8169 309.944 58.0327 309.944 57.5099 307.737C58.0327 305.53 58.8169 305.53 59.6012 307.737Z" fill="#0077FF" fill-opacity="0.29"/>
<path d="M65.0908 293.761C65.0908 295.232 65.3522 296.703 65.0908 298.174C64.8294 298.91 64.3066 299.645 64.0452 300.381C64.0452 298.174 64.0452 295.967 64.0452 294.496C64.3066 293.761 64.8294 293.761 65.0908 293.761Z" fill="#0077FF" fill-opacity="0.29"/>
<path d="M47.5764 263.601C47.5764 261.394 47.5764 259.187 47.5764 257.716C48.6221 257.716 48.6221 259.187 48.6221 261.394C48.3606 262.865 48.0992 263.601 47.5764 263.601Z" fill="#0077FF" fill-opacity="0.29"/>
<path d="M47.5764 257.716C46.5308 256.245 46.5308 256.245 47.0536 251.831C48.0993 252.567 47.315 255.509 47.5764 257.716Z" fill="#0077FF" fill-opacity="0.29"/>
<path d="M19.3443 232.705C20.1285 234.912 20.1285 237.119 19.3443 238.59C18.56 237.119 18.56 234.912 19.3443 232.705Z" fill="#0077FF" fill-opacity="0.29"/>
<path d="M20.9127 228.292C20.1285 230.498 19.3442 230.498 18.8214 228.292C19.3442 226.085 20.1285 226.085 20.9127 228.292Z" fill="#0077FF" fill-opacity="0.29"/>
<path d="M30.8463 219.464C30.062 221.671 29.2778 221.671 28.755 219.464C29.2778 217.257 30.062 217.257 30.8463 219.464Z" fill="#0077FF" fill-opacity="0.29"/>
<path d="M19.8671 175.328C20.1285 173.121 19.3442 170.914 20.3899 169.443C20.9127 173.121 20.9127 173.121 19.8671 175.328Z" fill="#0077FF" fill-opacity="0.29"/>
<path d="M427.403 11.2873C427.665 12.0229 427.665 12.0229 427.926 12.0229C427.665 12.0229 427.403 12.7585 427.142 12.7585L426.88 12.0229C426.88 12.0229 427.142 11.2873 427.403 11.2873Z" fill="#0077FF" fill-opacity="0.29"/>
<path d="M440.997 15.7009C440.735 16.4365 440.735 16.4365 440.474 16.4365C440.474 15.7009 440.212 14.9653 440.212 14.2297L440.474 13.4941C440.735 14.2297 440.735 14.9653 440.997 15.7009Z" fill="#0077FF" fill-opacity="0.29"/>
<path d="M33.9831 23.7926C33.9831 24.5282 33.7217 25.2638 33.4603 25.9994L33.1989 25.2638C33.1989 24.5282 33.4603 23.7926 33.4603 23.057C33.7217 23.057 33.9831 23.7926 33.9831 23.7926Z" fill="#0077FF" fill-opacity="0.29"/>
<path d="M8.36511 62.7798C8.88793 61.3086 9.14934 60.573 9.41075 59.8374C10.195 62.7798 9.41075 62.0442 8.36511 62.7798Z" fill="#0077FF" fill-opacity="0.29"/>
<path d="M9.14925 62.0442C8.62644 63.5154 8.36503 64.251 8.10362 64.9866C7.31939 62.7798 8.10362 62.7798 9.14925 62.0442Z" fill="#0077FF" fill-opacity="0.29"/>
<path d="M510.793 87.7905C510.27 86.3193 510.008 85.5836 509.747 84.848C510.793 83.3768 510.793 85.5837 510.793 87.7905Z" fill="#0077FF" fill-opacity="0.29"/>
<path d="M19.3443 123.1C19.0829 123.1 18.8215 122.364 18.5601 122.364L18.8215 121.628C19.0829 121.628 19.3443 122.364 19.6057 122.364C19.6057 122.364 19.6057 122.364 19.3443 123.1Z" fill="#0077FF" fill-opacity="0.29"/>
<path d="M26.6637 136.341C26.1409 134.869 25.8795 134.134 25.618 133.398C26.4023 131.927 26.4023 134.134 26.6637 136.341Z" fill="#0077FF" fill-opacity="0.29"/>
<path d="M27.4479 138.547C26.6636 138.547 26.4022 137.812 26.4022 135.605C27.1864 135.605 27.4479 136.341 27.4479 138.547Z" fill="#0077FF" fill-opacity="0.29"/>
<path d="M27.4479 137.812C27.9707 139.283 28.2321 140.019 28.4935 140.754C27.7093 142.225 27.7093 140.019 27.4479 137.812Z" fill="#0077FF" fill-opacity="0.29"/>
<path d="M517.851 141.49C517.589 140.754 517.589 140.754 517.328 140.754C517.589 140.754 517.851 140.019 518.112 140.019L518.373 140.754C518.373 140.754 518.112 140.754 517.851 141.49Z" fill="#0077FF" fill-opacity="0.29"/>
<path d="M518.635 151.788C518.112 150.317 517.851 149.582 517.589 148.846C518.374 146.639 518.373 149.582 518.635 151.788Z" fill="#0077FF" fill-opacity="0.29"/>
<path d="M26.6637 155.466C26.6637 154.731 26.9251 153.995 27.1865 153.26L27.4479 153.995C27.4479 154.731 27.1865 155.466 27.1865 156.202C26.9251 156.938 26.6637 156.202 26.6637 155.466Z" fill="#0077FF" fill-opacity="0.29"/>
<path d="M29.2778 165.765C29.2778 166.501 29.5392 167.236 29.5392 167.972L29.2778 168.707C29.2778 167.972 29.0164 167.236 29.0164 166.501C28.7549 166.501 29.0164 166.501 29.2778 165.765Z" fill="#0077FF" fill-opacity="0.29"/>
<path d="M1.04563 179.006C0.522817 177.535 0.261409 176.799 0 176.063C1.04563 174.592 0.784226 176.799 1.04563 179.006Z" fill="#0077FF" fill-opacity="0.29"/>
<path d="M6.79658 174.592C6.27377 176.063 6.01236 176.799 5.75095 177.535C5.22813 175.328 6.01236 175.328 6.79658 174.592Z" fill="#0077FF" fill-opacity="0.29"/>
<path d="M0.78418 177.535C1.307 179.006 1.56841 179.741 1.82981 180.477C1.04559 181.948 1.04559 179.741 0.78418 177.535Z" fill="#0077FF" fill-opacity="0.29"/>
<path d="M33.199 199.603C32.9375 199.603 32.4147 199.603 32.1533 199.603C32.1533 198.867 32.4147 197.396 32.4147 197.396C32.9375 196.66 33.199 198.132 33.199 199.603Z" fill="#0077FF" fill-opacity="0.29"/>
<path d="M31.8918 199.603C31.8918 201.81 31.6304 202.545 30.8462 202.545C30.8462 200.338 31.1076 199.603 31.8918 199.603Z" fill="#0077FF" fill-opacity="0.29"/>
<path d="M19.6056 207.695C19.3442 208.43 19.3442 208.43 19.0828 208.43C19.0828 207.695 18.8214 206.959 18.8214 206.223L19.0828 205.488C19.3442 206.223 19.6056 206.959 19.6056 207.695Z" fill="#0077FF" fill-opacity="0.29"/>
<path d="M499.552 220.935C500.075 219.464 500.336 218.729 500.598 217.993C501.121 220.935 500.336 220.2 499.552 220.935Z" fill="#0077FF" fill-opacity="0.29"/>
<path d="M476.025 223.142C475.764 223.142 475.502 222.407 475.241 222.407L475.502 221.671C475.764 221.671 476.025 222.407 476.287 222.407C476.287 222.407 476.287 223.142 476.025 223.142Z" fill="#0077FF" fill-opacity="0.29"/>
<path d="M489.096 220.2C488.573 221.671 488.311 222.407 488.05 223.142C487.266 220.935 488.05 220.935 489.096 220.2Z" fill="#0077FF" fill-opacity="0.29"/>
<path d="M501.905 245.211C501.382 245.211 500.859 245.211 501.12 243.004C501.12 242.268 501.643 242.268 501.905 242.268C501.905 243.004 501.905 244.475 501.905 245.211Z" fill="#0077FF" fill-opacity="0.29"/>
<path d="M494.847 279.048C494.847 279.784 495.108 280.52 495.108 281.255L494.847 281.991C494.847 281.255 494.585 280.52 494.585 279.784C494.324 279.784 494.585 279.048 494.847 279.048Z" fill="#0077FF" fill-opacity="0.29"/>
<path d="M59.6012 317.3C60.124 318.771 60.3854 319.507 60.6468 320.242C59.6012 322.449 59.6012 319.507 59.6012 317.3Z" fill="#0077FF" fill-opacity="0.29"/>
<path d="M73.1944 251.831C73.4558 251.831 73.7172 252.567 73.9786 252.567L73.7172 253.302C73.4558 253.302 73.1944 252.567 72.933 252.567L73.1944 251.831Z" fill="#0077FF" fill-opacity="0.29"/>
</svg>
